<svg width="965" height="1617" viewBox="0 0 965 1617" fill="none" xmlns="http://www.w3.org/2000/svg">
<mask id="path-1-outside-1_17_2627" maskUnits="userSpaceOnUse" x="0.826172" y="0.00878906" width="964" height="1617" fill="black">
<rect fill="white" x="0.826172" y="0.00878906" width="964" height="1617"/>
<path fill-rule="evenodd" clip-rule="evenodd" d="M319.583 24.1336C303.55 17.4835 288.909 19.0953 278.19 27.3777C267.912 35.3196 262.934 48.117 262.971 60.6404V60.6658C263.061 76.8523 254.131 100.563 238.343 128.998C236.354 132.579 234.271 136.208 232.105 139.879C217.355 164.865 198.699 191.745 179.055 217.997C134.002 278.206 84.5334 334.11 66.6287 355.205C59.7839 363.241 51.3452 373.081 43.7107 383.261C36.1483 393.344 28.8972 404.377 24.7412 414.905C24.7405 414.907 24.7413 414.909 24.7429 414.909C24.7446 414.91 24.7453 414.912 24.7446 414.914C21.6005 422.881 19.6525 431.963 22.0964 440.517L22.1121 440.572C28.6362 462.927 40.1079 483.571 52.9802 502.982C65.7026 522.168 80.559 541.216 93.3605 559.092C93.3608 559.092 93.3615 559.092 93.3621 559.092C93.3626 559.092 93.3633 559.092 93.3636 559.093C95.8531 562.592 99.5122 563.721 101.218 564.134C103.329 564.645 105.517 564.767 107.431 564.748C111.329 564.708 115.844 564.05 120.231 563.05C124.669 562.037 129.367 560.585 133.655 558.761C137.779 557.006 142.215 554.62 145.585 551.451C184.939 514.622 231.693 516.22 283.232 523.395C283.233 523.395 283.233 523.395 283.234 523.395C283.234 523.395 283.234 523.394 283.235 523.394C310.294 527.172 330.37 529.649 345.933 530.572C361.496 531.495 373.248 530.922 383.436 528.202C393.833 525.426 401.857 520.615 410.188 514.324C414.284 511.231 418.577 507.684 423.232 503.831C424.339 502.915 425.963 503.795 425.738 505.214C424.956 510.148 423.556 515.916 421.514 522.473C415.62 541.401 404.907 565.279 391.027 591.559C363.994 642.746 325.683 701.68 290.219 748.275L287.552 751.747C262.951 783.765 239.911 810.558 223.027 829.338C214.588 838.725 207.693 846.103 202.92 851.123C200.533 853.632 198.678 855.552 197.425 856.839C196.798 857.481 196.323 857.966 196.007 858.287C195.849 858.447 195.73 858.568 195.653 858.645L195.546 858.752C195.546 858.753 195.546 858.753 195.546 858.753C195.546 858.753 195.546 858.753 195.546 858.753L192.616 861.695C192.231 862.081 192.052 862.626 192.131 863.165L192.25 863.967C192.52 865.793 194.219 867.054 196.045 866.784L202.632 865.809L192.746 867.275C192.742 867.276 192.739 867.279 192.74 867.283C192.741 867.29 192.743 867.3 192.745 867.313C192.749 867.34 192.755 867.379 192.762 867.431C192.778 867.537 192.801 867.694 192.832 867.901C192.893 868.315 192.984 868.93 193.102 869.732C193.339 871.336 193.688 873.689 194.131 876.683C195.016 882.674 196.281 891.234 197.8 901.513C200.836 922.073 204.884 949.509 208.932 977.017C212.981 1004.53 217.029 1032.1 220.064 1052.95C221.582 1063.37 222.846 1072.1 223.729 1078.3C223.778 1078.64 223.55 1078.96 223.209 1079.03L198.059 1084.04C196.007 1084.45 195.811 1087.31 197.789 1088C199.323 1088.53 199.672 1090.56 198.462 1091.64C188.864 1100.25 182.18 1112.04 180.062 1125.33C180.032 1125.53 179.889 1125.68 179.699 1125.73C179.483 1125.78 179.332 1125.98 179.332 1126.2V1136.54C179.332 1136.56 179.335 1136.58 179.342 1136.59C179.348 1136.6 179.351 1136.62 179.351 1136.63V1141.66C179.351 1142.75 180.238 1143.64 181.332 1143.64C182.104 1143.64 182.806 1144.09 183.13 1144.79L194.882 1170.23C195.269 1171.07 195.407 1172 195.258 1172.91C194.937 1174.87 194.488 1177.26 193.975 1179.7C193.461 1182.14 192.902 1184.53 192.37 1186.49C192.103 1187.47 191.861 1188.28 191.653 1188.9C191.499 1189.36 191.405 1189.61 191.373 1189.69C145.562 1278.93 119.993 1370.71 164.903 1468.68C164.962 1468.81 164.869 1468.96 164.726 1468.96C164.578 1468.96 164.484 1469.12 164.554 1469.25L172.09 1483.26C172.154 1483.38 172.217 1483.51 172.282 1483.63L172.365 1483.78C172.643 1484.37 173.07 1485.9 172.937 1488.87C172.805 1491.86 172.155 1495.42 171.14 1499.22C171.14 1499.22 171.141 1499.22 171.143 1499.22C171.145 1499.22 171.146 1499.22 171.145 1499.22L146.526 1580.01C144.574 1586.41 149.344 1592.89 156.039 1592.92L931.197 1597C938.055 1597.04 942.913 1590.32 940.728 1583.81L913.137 1501.73C910.397 1493.58 911.364 1484.68 915.318 1477.04C937.164 1434.85 946.821 1391.09 944.485 1346.68C941.794 1294.67 922.656 1242.43 888.259 1191.26C886.708 1188.95 885.081 1186.66 883.558 1184.51C882.005 1182.31 880.542 1180.23 879.171 1178.15C876.306 1173.81 876.682 1168.23 879.572 1163.91L895.594 1139.94C896.693 1138.29 897.279 1136.36 897.279 1134.38C897.279 1123.84 896.275 1114.24 893.146 1104.66C890.57 1096.78 886.673 1089.27 881.188 1081.48C879.563 1079.17 878.305 1076.6 876.669 1074.3C875.398 1072.51 873.813 1070.93 872.22 1069.59C869.007 1066.87 864.804 1064.31 860.13 1062.27C855.148 1060.1 849.09 1058.29 842.579 1057.72C841.019 1057.58 839.746 1056.37 839.571 1054.82C838.93 1049.11 837.463 1041.57 836.414 1034.71C834.18 1020.13 832.733 1002.78 838.143 983.159C847.685 948.557 865 907.819 881.101 867.689C896.893 828.33 911.753 789.025 914.933 759.044L915.341 755.52C932.165 606.113 900.858 422.798 817.48 279.878C733.258 135.509 595.195 31.4932 399.882 47.1453C381.43 47.9421 360.742 44.8492 344.425 37.6724C343.718 37.3617 343.81 36.3503 344.556 36.1541C345.321 35.9531 345.394 34.8955 344.664 34.5915L320.388 24.4871C320.173 24.3909 319.959 24.2955 319.744 24.202L319.664 24.1668L319.583 24.1336ZM180.792 1501.88C180.792 1501.88 180.792 1501.88 180.792 1501.88L156.092 1582.92L931.249 1587C931.25 1587 931.25 1587 931.25 1587C931.25 1587 931.25 1587 931.249 1587L156.092 1582.92L180.791 1501.88C180.791 1501.88 180.792 1501.88 180.792 1501.88ZM912.774 1459.38C912.659 1459.64 912.544 1459.89 912.428 1460.14C912.544 1459.89 912.659 1459.64 912.774 1459.38ZM913.533 1457.7C913.456 1457.87 913.378 1458.04 913.301 1458.21C913.43 1457.92 913.558 1457.64 913.686 1457.35C913.635 1457.46 913.585 1457.58 913.533 1457.7ZM925.509 1424.99C925.085 1426.45 924.647 1427.91 924.195 1429.37L924.862 1427.18C925.081 1426.45 925.297 1425.72 925.509 1424.99ZM932.889 1389.64C932.879 1389.72 932.869 1389.8 932.859 1389.87C932.899 1389.57 932.936 1389.27 932.974 1388.96C932.946 1389.19 932.919 1389.42 932.889 1389.64ZM933.248 1386.73C933.2 1387.13 933.152 1387.54 933.102 1387.94C933.152 1387.54 933.2 1387.13 933.248 1386.73ZM933.424 1385.2C933.392 1385.48 933.358 1385.76 933.326 1386.05C933.374 1385.63 933.422 1385.2 933.468 1384.78C933.453 1384.92 933.439 1385.06 933.424 1385.2ZM933.658 1382.97C933.631 1383.24 933.602 1383.5 933.574 1383.77C933.607 1383.46 933.64 1383.14 933.672 1382.83L933.658 1382.97ZM934.137 1377.56C934.048 1378.71 933.952 1379.87 933.845 1381.02L934.005 1379.21C934.051 1378.66 934.095 1378.11 934.137 1377.56ZM934.223 1376.4C934.201 1376.71 934.18 1377.01 934.157 1377.32C934.18 1377.01 934.201 1376.71 934.223 1376.4ZM934.388 1373.92C934.358 1374.41 934.329 1374.9 934.296 1375.39C934.329 1374.9 934.358 1374.41 934.388 1373.92ZM934.474 1372.46C934.452 1372.85 934.43 1373.25 934.406 1373.65C934.43 1373.25 934.452 1372.85 934.474 1372.46ZM934.564 1370.7C934.549 1371.02 934.534 1371.34 934.517 1371.66C934.534 1371.34 934.549 1371.02 934.564 1370.7ZM934.648 1368.75C934.635 1369.08 934.622 1369.41 934.608 1369.74C934.622 1369.41 934.635 1369.08 934.648 1368.75ZM934.7 1367.36C934.693 1367.57 934.684 1367.78 934.677 1367.99C934.69 1367.6 934.704 1367.22 934.716 1366.84C934.71 1367.01 934.706 1367.18 934.7 1367.36ZM934.763 1365.12C934.757 1365.39 934.749 1365.65 934.742 1365.91C934.752 1365.56 934.761 1365.2 934.769 1364.85C934.767 1364.94 934.766 1365.03 934.763 1365.12ZM201.941 1102.23C201.941 1102.24 201.941 1102.24 201.941 1102.24C201.745 1102.45 201.551 1102.66 201.359 1102.88C201.359 1102.88 201.358 1102.88 201.358 1102.88C201.358 1102.88 201.358 1102.88 201.358 1102.88C201.55 1102.66 201.745 1102.45 201.941 1102.23C201.941 1102.23 201.941 1102.23 201.941 1102.23ZM837.136 952.986C837.136 952.986 837.136 952.986 837.136 952.986C837.136 952.986 837.136 952.986 837.136 952.986C837.531 951.841 837.932 950.692 838.338 949.54C837.932 950.692 837.531 951.841 837.136 952.986ZM838.483 949.128C838.841 948.111 839.203 947.092 839.568 946.07C839.203 947.092 838.841 948.111 838.483 949.128ZM839.702 945.697C840.115 944.543 840.532 943.384 840.954 942.223C840.532 943.384 840.115 944.543 839.702 945.697ZM856.363 902.261L856.669 901.494C856.909 900.896 857.151 900.298 857.391 899.7C857.048 900.554 856.705 901.407 856.363 902.261ZM858.948 895.835C860.31 892.458 861.676 889.078 863.044 885.7C861.676 889.078 860.31 892.458 858.948 895.835ZM881.943 838.217C881.943 838.217 881.943 838.217 881.943 838.217C881.482 839.423 881.018 840.632 880.55 841.845C881.017 840.632 881.482 839.423 881.943 838.216C881.943 838.216 881.943 838.216 881.943 838.217ZM398.467 598.873C397.606 600.487 396.735 602.109 395.854 603.737L397.209 601.223C397.63 600.438 398.05 599.655 398.467 598.873ZM389.609 515.388C389.257 515.551 388.903 515.711 388.547 515.866C388.547 515.866 388.547 515.866 388.547 515.866C388.546 515.866 388.546 515.866 388.547 515.866C388.903 515.711 389.257 515.551 389.609 515.388ZM215.264 510.192C215.67 510.152 216.076 510.113 216.482 510.075L216.537 510.07C216.112 510.109 215.688 510.15 215.264 510.192ZM218.869 509.871L220.037 509.783C220.168 509.774 220.299 509.765 220.43 509.756C219.91 509.792 219.389 509.83 218.869 509.871ZM220.839 509.727C221.352 509.693 221.865 509.66 222.379 509.63C221.865 509.66 221.352 509.693 220.839 509.727ZM436.382 493.842C436.395 494.022 436.407 494.204 436.418 494.387C436.407 494.204 436.395 494.022 436.382 493.842ZM436.347 493.384C436.353 493.446 436.357 493.508 436.362 493.571C436.341 493.314 436.319 493.059 436.293 492.807L436.347 493.384ZM436.02 490.802C436.034 490.882 436.047 490.963 436.06 491.045C436.047 490.963 436.034 490.882 436.02 490.802ZM433.002 483.001C433.002 483.001 433.002 483.001 433.002 483.001C431.455 484.22 429.965 485.406 428.528 486.561C429.965 485.406 431.454 484.219 433.001 483C433.001 483 433.002 483 433.002 483.001ZM402.704 56.9559H402.703C403.446 56.8994 404.188 56.8447 404.929 56.7918C405.172 56.7745 405.415 56.758 405.658 56.741C404.675 56.8099 403.69 56.8809 402.704 56.9559ZM406.463 56.6854C407.433 56.6191 408.401 56.555 409.368 56.4949C408.401 56.555 407.433 56.6191 406.463 56.6854Z"/>
</mask>
<path fill-rule="evenodd" clip-rule="evenodd" d="M319.583 24.1336C303.55 17.4835 288.909 19.0953 278.19 27.3777C267.912 35.3196 262.934 48.117 262.971 60.6404V60.6658C263.061 76.8523 254.131 100.563 238.343 128.998C236.354 132.579 234.271 136.208 232.105 139.879C217.355 164.865 198.699 191.745 179.055 217.997C134.002 278.206 84.5334 334.11 66.6287 355.205C59.7839 363.241 51.3452 373.081 43.7107 383.261C36.1483 393.344 28.8972 404.377 24.7412 414.905C24.7405 414.907 24.7413 414.909 24.7429 414.909C24.7446 414.91 24.7453 414.912 24.7446 414.914C21.6005 422.881 19.6525 431.963 22.0964 440.517L22.1121 440.572C28.6362 462.927 40.1079 483.571 52.9802 502.982C65.7026 522.168 80.559 541.216 93.3605 559.092C93.3608 559.092 93.3615 559.092 93.3621 559.092C93.3626 559.092 93.3633 559.092 93.3636 559.093C95.8531 562.592 99.5122 563.721 101.218 564.134C103.329 564.645 105.517 564.767 107.431 564.748C111.329 564.708 115.844 564.05 120.231 563.05C124.669 562.037 129.367 560.585 133.655 558.761C137.779 557.006 142.215 554.62 145.585 551.451C184.939 514.622 231.693 516.22 283.232 523.395C283.233 523.395 283.233 523.395 283.234 523.395C283.234 523.395 283.234 523.394 283.235 523.394C310.294 527.172 330.37 529.649 345.933 530.572C361.496 531.495 373.248 530.922 383.436 528.202C393.833 525.426 401.857 520.615 410.188 514.324C414.284 511.231 418.577 507.684 423.232 503.831C424.339 502.915 425.963 503.795 425.738 505.214C424.956 510.148 423.556 515.916 421.514 522.473C415.62 541.401 404.907 565.279 391.027 591.559C363.994 642.746 325.683 701.68 290.219 748.275L287.552 751.747C262.951 783.765 239.911 810.558 223.027 829.338C214.588 838.725 207.693 846.103 202.92 851.123C200.533 853.632 198.678 855.552 197.425 856.839C196.798 857.481 196.323 857.966 196.007 858.287C195.849 858.447 195.73 858.568 195.653 858.645L195.546 858.752C195.546 858.753 195.546 858.753 195.546 858.753C195.546 858.753 195.546 858.753 195.546 858.753L192.616 861.695C192.231 862.081 192.052 862.626 192.131 863.165L192.25 863.967C192.52 865.793 194.219 867.054 196.045 866.784L202.632 865.809L192.746 867.275C192.742 867.276 192.739 867.279 192.74 867.283C192.741 867.29 192.743 867.3 192.745 867.313C192.749 867.34 192.755 867.379 192.762 867.431C192.778 867.537 192.801 867.694 192.832 867.901C192.893 868.315 192.984 868.93 193.102 869.732C193.339 871.336 193.688 873.689 194.131 876.683C195.016 882.674 196.281 891.234 197.8 901.513C200.836 922.073 204.884 949.509 208.932 977.017C212.981 1004.53 217.029 1032.1 220.064 1052.95C221.582 1063.37 222.846 1072.1 223.729 1078.3C223.778 1078.64 223.55 1078.96 223.209 1079.03L198.059 1084.04C196.007 1084.45 195.811 1087.31 197.789 1088C199.323 1088.53 199.672 1090.56 198.462 1091.64C188.864 1100.25 182.18 1112.04 180.062 1125.33C180.032 1125.53 179.889 1125.68 179.699 1125.73C179.483 1125.78 179.332 1125.98 179.332 1126.2V1136.54C179.332 1136.56 179.335 1136.58 179.342 1136.59C179.348 1136.6 179.351 1136.62 179.351 1136.63V1141.66C179.351 1142.75 180.238 1143.64 181.332 1143.64C182.104 1143.64 182.806 1144.09 183.13 1144.79L194.882 1170.23C195.269 1171.07 195.407 1172 195.258 1172.91C194.937 1174.87 194.488 1177.26 193.975 1179.7C193.461 1182.14 192.902 1184.53 192.37 1186.49C192.103 1187.47 191.861 1188.28 191.653 1188.9C191.499 1189.36 191.405 1189.61 191.373 1189.69C145.562 1278.93 119.993 1370.71 164.903 1468.68C164.962 1468.81 164.869 1468.96 164.726 1468.96C164.578 1468.96 164.484 1469.12 164.554 1469.25L172.09 1483.26C172.154 1483.38 172.217 1483.51 172.282 1483.63L172.365 1483.78C172.643 1484.37 173.07 1485.9 172.937 1488.87C172.805 1491.86 172.155 1495.42 171.14 1499.22C171.14 1499.22 171.141 1499.22 171.143 1499.22C171.145 1499.22 171.146 1499.22 171.145 1499.22L146.526 1580.01C144.574 1586.41 149.344 1592.89 156.039 1592.92L931.197 1597C938.055 1597.04 942.913 1590.32 940.728 1583.81L913.137 1501.73C910.397 1493.58 911.364 1484.68 915.318 1477.04C937.164 1434.85 946.821 1391.09 944.485 1346.68C941.794 1294.67 922.656 1242.43 888.259 1191.26C886.708 1188.95 885.081 1186.66 883.558 1184.51C882.005 1182.31 880.542 1180.23 879.171 1178.15C876.306 1173.81 876.682 1168.23 879.572 1163.91L895.594 1139.94C896.693 1138.29 897.279 1136.36 897.279 1134.38C897.279 1123.84 896.275 1114.24 893.146 1104.66C890.57 1096.78 886.673 1089.27 881.188 1081.48C879.563 1079.17 878.305 1076.6 876.669 1074.3C875.398 1072.51 873.813 1070.93 872.22 1069.59C869.007 1066.87 864.804 1064.31 860.13 1062.27C855.148 1060.1 849.09 1058.29 842.579 1057.72C841.019 1057.58 839.746 1056.37 839.571 1054.82C838.93 1049.11 837.463 1041.57 836.414 1034.71C834.18 1020.13 832.733 1002.78 838.143 983.159C847.685 948.557 865 907.819 881.101 867.689C896.893 828.33 911.753 789.025 914.933 759.044L915.341 755.52C932.165 606.113 900.858 422.798 817.48 279.878C733.258 135.509 595.195 31.4932 399.882 47.1453C381.43 47.9421 360.742 44.8492 344.425 37.6724C343.718 37.3617 343.81 36.3503 344.556 36.1541C345.321 35.9531 345.394 34.8955 344.664 34.5915L320.388 24.4871C320.173 24.3909 319.959 24.2955 319.744 24.202L319.664 24.1668L319.583 24.1336ZM180.792 1501.88C180.792 1501.88 180.792 1501.88 180.792 1501.88L156.092 1582.92L931.249 1587C931.25 1587 931.25 1587 931.25 1587C931.25 1587 931.25 1587 931.249 1587L156.092 1582.92L180.791 1501.88C180.791 1501.88 180.792 1501.88 180.792 1501.88ZM912.774 1459.38C912.659 1459.64 912.544 1459.89 912.428 1460.14C912.544 1459.89 912.659 1459.64 912.774 1459.38ZM913.533 1457.7C913.456 1457.87 913.378 1458.04 913.301 1458.21C913.43 1457.92 913.558 1457.64 913.686 1457.35C913.635 1457.46 913.585 1457.58 913.533 1457.7ZM925.509 1424.99C925.085 1426.45 924.647 1427.91 924.195 1429.37L924.862 1427.18C925.081 1426.45 925.297 1425.72 925.509 1424.99ZM932.889 1389.64C932.879 1389.72 932.869 1389.8 932.859 1389.87C932.899 1389.57 932.936 1389.27 932.974 1388.96C932.946 1389.19 932.919 1389.42 932.889 1389.64ZM933.248 1386.73C933.2 1387.13 933.152 1387.54 933.102 1387.94C933.152 1387.54 933.2 1387.13 933.248 1386.73ZM933.424 1385.2C933.392 1385.48 933.358 1385.76 933.326 1386.05C933.374 1385.63 933.422 1385.2 933.468 1384.78C933.453 1384.92 933.439 1385.06 933.424 1385.2ZM933.658 1382.97C933.631 1383.24 933.602 1383.5 933.574 1383.77C933.607 1383.46 933.64 1383.14 933.672 1382.83L933.658 1382.97ZM934.137 1377.56C934.048 1378.71 933.952 1379.87 933.845 1381.02L934.005 1379.21C934.051 1378.66 934.095 1378.11 934.137 1377.56ZM934.223 1376.4C934.201 1376.71 934.18 1377.01 934.157 1377.32C934.18 1377.01 934.201 1376.71 934.223 1376.4ZM934.388 1373.92C934.358 1374.41 934.329 1374.9 934.296 1375.39C934.329 1374.9 934.358 1374.41 934.388 1373.92ZM934.474 1372.46C934.452 1372.85 934.43 1373.25 934.406 1373.65C934.43 1373.25 934.452 1372.85 934.474 1372.46ZM934.564 1370.7C934.549 1371.02 934.534 1371.34 934.517 1371.66C934.534 1371.34 934.549 1371.02 934.564 1370.7ZM934.648 1368.75C934.635 1369.08 934.622 1369.41 934.608 1369.74C934.622 1369.41 934.635 1369.08 934.648 1368.75ZM934.7 1367.36C934.693 1367.57 934.684 1367.78 934.677 1367.99C934.69 1367.6 934.704 1367.22 934.716 1366.84C934.71 1367.01 934.706 1367.18 934.7 1367.36ZM934.763 1365.12C934.757 1365.39 934.749 1365.65 934.742 1365.91C934.752 1365.56 934.761 1365.2 934.769 1364.85C934.767 1364.94 934.766 1365.03 934.763 1365.12ZM201.941 1102.23C201.941 1102.24 201.941 1102.24 201.941 1102.24C201.745 1102.45 201.551 1102.66 201.359 1102.88C201.359 1102.88 201.358 1102.88 201.358 1102.88C201.358 1102.88 201.358 1102.88 201.358 1102.88C201.55 1102.66 201.745 1102.45 201.941 1102.23C201.941 1102.23 201.941 1102.23 201.941 1102.23ZM837.136 952.986C837.136 952.986 837.136 952.986 837.136 952.986C837.136 952.986 837.136 952.986 837.136 952.986C837.531 951.841 837.932 950.692 838.338 949.54C837.932 950.692 837.531 951.841 837.136 952.986ZM838.483 949.128C838.841 948.111 839.203 947.092 839.568 946.07C839.203 947.092 838.841 948.111 838.483 949.128ZM839.702 945.697C840.115 944.543 840.532 943.384 840.954 942.223C840.532 943.384 840.115 944.543 839.702 945.697ZM856.363 902.261L856.669 901.494C856.909 900.896 857.151 900.298 857.391 899.7C857.048 900.554 856.705 901.407 856.363 902.261ZM858.948 895.835C860.31 892.458 861.676 889.078 863.044 885.7C861.676 889.078 860.31 892.458 858.948 895.835ZM881.943 838.217C881.943 838.217 881.943 838.217 881.943 838.217C881.482 839.423 881.018 840.632 880.55 841.845C881.017 840.632 881.482 839.423 881.943 838.216C881.943 838.216 881.943 838.216 881.943 838.217ZM398.467 598.873C397.606 600.487 396.735 602.109 395.854 603.737L397.209 601.223C397.63 600.438 398.05 599.655 398.467 598.873ZM389.609 515.388C389.257 515.551 388.903 515.711 388.547 515.866C388.547 515.866 388.547 515.866 388.547 515.866C388.546 515.866 388.546 515.866 388.547 515.866C388.903 515.711 389.257 515.551 389.609 515.388ZM215.264 510.192C215.67 510.152 216.076 510.113 216.482 510.075L216.537 510.07C216.112 510.109 215.688 510.15 215.264 510.192ZM218.869 509.871L220.037 509.783C220.168 509.774 220.299 509.765 220.43 509.756C219.91 509.792 219.389 509.83 218.869 509.871ZM220.839 509.727C221.352 509.693 221.865 509.66 222.379 509.63C221.865 509.66 221.352 509.693 220.839 509.727ZM436.382 493.842C436.395 494.022 436.407 494.204 436.418 494.387C436.407 494.204 436.395 494.022 436.382 493.842ZM436.347 493.384C436.353 493.446 436.357 493.508 436.362 493.571C436.341 493.314 436.319 493.059 436.293 492.807L436.347 493.384ZM436.02 490.802C436.034 490.882 436.047 490.963 436.06 491.045C436.047 490.963 436.034 490.882 436.02 490.802ZM433.002 483.001C433.002 483.001 433.002 483.001 433.002 483.001C431.455 484.22 429.965 485.406 428.528 486.561C429.965 485.406 431.454 484.219 433.001 483C433.001 483 433.002 483 433.002 483.001ZM402.704 56.9559H402.703C403.446 56.8994 404.188 56.8447 404.929 56.7918C405.172 56.7745 405.415 56.758 405.658 56.741C404.675 56.8099 403.69 56.8809 402.704 56.9559ZM406.463 56.6854C407.433 56.6191 408.401 56.555 409.368 56.4949C408.401 56.555 407.433 56.6191 406.463 56.6854Z" fill="#7F072A"/>
<path d="M319.583 24.1336L312.001 42.641L311.961 42.6243L311.92 42.6074L319.583 24.1336ZM278.19 27.3777L265.962 11.5518L265.962 11.5517L278.19 27.3777ZM262.971 60.6404L282.971 60.5807L282.971 60.6106V60.6404H262.971ZM262.971 60.6658L242.972 60.7761L242.971 60.721V60.6658H262.971ZM238.343 128.998L255.828 138.707V138.707L238.343 128.998ZM232.105 139.879L249.33 150.044L249.328 150.046L232.105 139.879ZM179.055 217.997L163.042 206.014V206.014L179.055 217.997ZM66.6287 355.205L81.8767 368.147L81.8655 368.16L81.8542 368.173L66.6287 355.205ZM43.7107 383.261L27.7104 371.261L27.7105 371.261L43.7107 383.261ZM22.0964 440.517L2.86597 446.012L2.86591 446.012L22.0964 440.517ZM22.1121 440.572L2.91302 446.175L2.89716 446.121L2.88159 446.066L22.1121 440.572ZM52.9802 502.982L36.3121 514.035L36.312 514.035L52.9802 502.982ZM101.218 564.134L96.5129 583.572L96.5126 583.572L101.218 564.134ZM107.431 564.748L107.634 584.747H107.634L107.431 564.748ZM120.231 563.05L115.783 543.551H115.783L120.231 563.05ZM133.655 558.761L141.484 577.165L141.483 577.165L133.655 558.761ZM145.585 551.451L131.883 536.882L131.901 536.865L131.919 536.848L145.585 551.451ZM345.933 530.572L344.749 550.537H344.749L345.933 530.572ZM383.436 528.202L388.595 547.525L388.595 547.525L383.436 528.202ZM410.188 514.324L422.24 530.285L422.24 530.285L410.188 514.324ZM423.232 503.831L435.986 519.237H435.986L423.232 503.831ZM421.514 522.473L402.419 516.527V516.527L421.514 522.473ZM391.027 591.559L373.342 582.219V582.219L391.027 591.559ZM290.219 748.275L306.134 760.388L306.106 760.425L306.078 760.462L290.219 748.275ZM287.552 751.747L271.692 739.562L271.693 739.56L287.552 751.747ZM223.027 829.338L237.9 842.709V842.709L223.027 829.338ZM202.92 851.123L217.413 864.905V864.905L202.92 851.123ZM197.425 856.839L183.099 842.882L183.099 842.882L197.425 856.839ZM196.007 858.287L210.253 872.324L210.252 872.325L196.007 858.287ZM195.653 858.645L209.86 872.722L209.828 872.755L209.795 872.787L195.653 858.645ZM202.632 865.809L199.704 846.025L205.565 885.593L202.632 865.809ZM192.74 867.283L172.954 870.199L172.953 870.194L192.74 867.283ZM192.745 867.313L212.524 864.351L212.528 864.374L212.531 864.396L192.745 867.313ZM192.762 867.431L212.547 864.504V864.504L192.762 867.431ZM192.832 867.901L212.616 864.974V864.974L192.832 867.901ZM193.102 869.732L212.887 866.806L212.887 866.806L193.102 869.732ZM194.131 876.683L174.346 879.609L174.346 879.608L194.131 876.683ZM197.8 901.513L178.014 904.436V904.436L197.8 901.513ZM208.932 977.017L189.146 979.929V979.929L208.932 977.017ZM220.064 1052.95L239.855 1050.06V1050.06L220.064 1052.95ZM223.729 1078.3L203.93 1081.12V1081.12L223.729 1078.3ZM195.258 1172.91L175.521 1169.68L175.521 1169.68L195.258 1172.91ZM193.975 1179.7L174.405 1175.57L174.405 1175.57L193.975 1179.7ZM192.37 1186.49L173.067 1181.25L173.067 1181.25L192.37 1186.49ZM191.653 1188.9L210.62 1195.25L210.62 1195.25L191.653 1188.9ZM191.373 1189.69L209.893 1197.24L209.564 1198.04L209.165 1198.82L191.373 1189.69ZM172.09 1483.26L189.704 1473.79L189.742 1473.86L189.779 1473.93L172.09 1483.26ZM172.282 1483.63L154.644 1493.06L154.625 1493.02L154.605 1492.98L172.282 1483.63ZM172.365 1483.78L190.003 1474.35L190.223 1474.77L190.423 1475.19L172.365 1483.78ZM172.937 1488.87L192.918 1489.76V1489.76L172.937 1488.87ZM146.526 1580.01L165.657 1585.84L165.657 1585.84L146.526 1580.01ZM156.039 1592.92L155.934 1612.92H155.933L156.039 1592.92ZM931.197 1597L931.092 1617H931.092L931.197 1597ZM940.728 1583.81L921.771 1590.19L921.771 1590.19L940.728 1583.81ZM944.485 1346.68L924.513 1347.73L924.512 1347.73L924.512 1347.72L944.485 1346.68ZM888.259 1191.26L871.661 1202.42L871.653 1202.41L888.259 1191.26ZM883.558 1184.51L899.892 1172.96H899.892L883.558 1184.51ZM879.171 1178.15L862.478 1189.16L862.478 1189.16L879.171 1178.15ZM895.594 1139.94L912.223 1151.05L912.222 1151.05L895.594 1139.94ZM893.146 1104.66L912.157 1098.45L912.157 1098.45L893.146 1104.66ZM876.669 1074.3L892.965 1062.7L892.965 1062.7L876.669 1074.3ZM872.22 1069.59L859.317 1084.87L859.316 1084.87L872.22 1069.59ZM860.13 1062.27L852.128 1080.6H852.128L860.13 1062.27ZM839.571 1054.82L859.446 1052.59V1052.59L839.571 1054.82ZM836.414 1034.71L816.644 1037.74V1037.74L836.414 1034.71ZM838.143 983.159L818.863 977.842L818.863 977.842L838.143 983.159ZM881.101 867.689L899.663 875.137H899.663L881.101 867.689ZM914.933 759.044L895.045 756.934L895.055 756.841L895.066 756.747L914.933 759.044ZM915.341 755.52L935.215 757.758L935.212 757.787L935.208 757.817L915.341 755.52ZM817.48 279.878L834.755 269.8L834.755 269.8L817.48 279.878ZM399.882 47.1453L401.479 67.0814L401.112 67.1108L400.745 67.1267L399.882 47.1453ZM320.388 24.4871L312.703 42.9515L312.459 42.8498L312.217 42.7417L320.388 24.4871ZM319.744 24.202L311.759 42.5386L311.731 42.5268L311.704 42.5148L319.744 24.202ZM319.664 24.1668L327.245 5.65942L327.476 5.75382L327.704 5.85393L319.664 24.1668ZM156.092 1582.92L155.986 1602.92L129.131 1602.78L136.96 1577.09L156.092 1582.92ZM912.774 1459.38L894.556 1451.13L930.993 1467.63L912.774 1459.38ZM912.428 1460.14L930.621 1468.45L894.235 1451.84L912.428 1460.14ZM913.533 1457.7L895.257 1449.57H895.258L913.533 1457.7ZM913.301 1458.21L931.558 1466.38L895.043 1450.05L913.301 1458.21ZM913.686 1457.35L895.4 1449.25L931.974 1465.44L913.686 1457.35ZM924.195 1429.37L943.301 1435.28L905.06 1423.55L924.195 1429.37ZM924.862 1427.18L944.022 1432.91L944.01 1432.96L943.997 1433L924.862 1427.18ZM932.889 1389.64L913.056 1387.07L913.056 1387.07L932.889 1389.64ZM932.859 1389.87L952.69 1392.47L913.028 1387.28L932.859 1389.87ZM932.974 1388.96L913.134 1386.45L952.815 1391.48L932.974 1388.96ZM933.248 1386.73L913.384 1384.4L953.112 1389.05L933.248 1386.73ZM933.102 1387.94L952.954 1390.38L913.25 1385.51L933.102 1387.94ZM933.424 1385.2L953.303 1387.39L953.303 1387.39L933.424 1385.2ZM933.326 1386.05L953.197 1388.32L913.455 1383.78L933.326 1386.05ZM933.468 1384.78L913.584 1382.62L953.351 1386.94L933.468 1384.78ZM933.658 1382.97L953.563 1384.92L953.56 1384.95L953.558 1384.97L933.658 1382.97ZM933.574 1383.77L953.466 1385.84L913.681 1381.7L933.574 1383.77ZM933.672 1382.83L913.771 1380.84L953.576 1384.78L933.672 1382.83ZM933.845 1381.02L953.761 1382.86L913.922 1379.27L933.845 1381.02ZM934.005 1379.21L953.934 1380.89L953.931 1380.93L953.928 1380.96L934.005 1379.21ZM934.7 1367.36L954.689 1368.02L954.689 1368.02L934.7 1367.36ZM934.716 1366.84L914.725 1366.22L954.706 1367.45L934.716 1366.84ZM934.763 1365.12L914.769 1364.65H914.769L934.763 1365.12ZM934.742 1365.91L954.735 1366.45L914.749 1365.38L934.742 1365.91ZM934.769 1364.85L914.774 1364.4L954.764 1365.29L934.769 1364.85ZM838.338 949.54L819.47 942.905L857.206 956.173L838.338 949.54ZM838.483 949.128L857.346 955.775L819.619 942.483L838.483 949.128ZM839.568 946.07L820.736 939.337L858.401 952.802L839.568 946.07ZM839.702 945.697L858.531 952.44L820.872 938.955L839.702 945.697ZM856.363 902.261L874.927 909.703L837.785 894.853L856.363 902.261ZM856.669 901.494L838.091 894.087L838.099 894.068L838.106 894.049L856.669 901.494ZM857.391 899.7L838.834 892.241L875.949 907.158L857.391 899.7ZM858.948 895.835L877.496 903.316L840.4 888.355L858.948 895.835ZM880.55 841.845L899.208 849.046L861.89 834.645L880.55 841.845ZM395.854 603.737L413.443 613.257L378.248 594.25L395.854 603.737ZM397.209 601.223L414.829 610.685L414.822 610.698L414.815 610.711L397.209 601.223ZM389.609 515.388L381.252 497.218L397.973 533.555L389.609 515.388ZM216.482 510.075L214.639 490.16L214.672 490.157L214.704 490.154L216.482 510.075ZM216.537 510.07L214.758 490.149L218.373 529.986L216.537 510.07ZM218.869 509.871L220.37 529.815L217.302 489.932L218.869 509.871ZM220.037 509.783L218.536 489.839L218.569 489.837L218.602 489.835L220.037 509.783ZM220.839 509.727L222.186 529.682L219.491 489.773L220.839 509.727ZM436.382 493.842L416.434 495.285L456.329 492.397L436.382 493.842ZM436.418 494.387L456.385 493.24L416.451 495.541L436.418 494.387ZM436.347 493.384L456.258 491.494L456.267 491.585L456.274 491.677L436.347 493.384ZM436.362 493.571L456.298 491.976L416.426 495.169L436.362 493.571ZM436.293 492.807L416.382 494.697L456.188 490.763L436.293 492.807ZM436.02 490.802L416.299 494.129L455.735 487.434L436.02 490.802ZM436.06 491.045L455.807 487.874L416.317 494.238L436.06 491.045ZM428.528 486.561L441.061 502.148L415.994 470.976L428.528 486.561ZM402.704 56.9559L404.219 76.8984L403.463 76.9559H402.704V56.9559ZM402.703 56.9559V76.9559L401.188 37.0133L402.703 56.9559ZM404.929 56.7918L403.506 36.8425H403.506L404.929 56.7918ZM405.658 56.741L404.262 36.7898L407.055 76.6922L405.658 56.741ZM406.463 56.6854L407.826 76.6388L405.099 36.7319L406.463 56.6854ZM433.001 483L445.379 498.71L433.001 483ZM388.547 515.866L380.577 497.523L388.547 515.866ZM183.13 1144.79L201.286 1136.4L183.13 1144.79ZM837.136 952.986L856.04 959.514L837.136 952.986ZM180.791 1501.88L161.66 1496.05L180.791 1501.88ZM931.249 1587L931.144 1607L931.249 1587ZM93.3621 559.092L84.4178 541.204L93.3621 559.092ZM93.3637 559.093L77.0667 570.686L93.3637 559.093ZM931.249 1587L931.355 1567L931.249 1587ZM837.136 952.986L818.231 946.459L837.136 952.986ZM180.792 1501.88L161.661 1496.05L180.792 1501.88ZM433.002 483.001L445.379 498.711L433.002 483.001ZM842.579 1057.72L840.839 1077.64L842.579 1057.72ZM881.188 1081.48L864.831 1092.98L881.188 1081.48ZM913.137 1501.73L932.095 1495.36L913.137 1501.73ZM388.547 515.866L380.577 497.522L388.547 515.866ZM171.14 1499.22L151.817 1494.06L171.14 1499.22ZM171.143 1499.22L168.314 1519.02L171.143 1499.22ZM881.943 838.216L863.26 831.079L881.943 838.216ZM881.943 838.217L863.26 831.079L881.943 838.217ZM171.145 1499.22L152.014 1493.39L171.145 1499.22ZM180.062 1125.33L199.813 1128.48L180.062 1125.33ZM179.699 1125.73L184.517 1145.14L179.699 1125.73ZM201.941 1102.24L187.252 1088.66L201.941 1102.24ZM24.7412 414.905L43.3441 422.249L24.7412 414.905ZM344.556 36.1541L339.473 16.8109L344.556 36.1541ZM344.664 34.5915L352.349 16.1271L344.664 34.5915ZM201.941 1102.23L216.63 1115.81L201.941 1102.23ZM344.425 37.6724L352.477 19.3649L344.425 37.6724ZM201.358 1102.88L186.425 1089.57L201.358 1102.88ZM24.7447 414.914L43.3482 422.256L24.7447 414.914ZM201.359 1102.88L216.292 1116.18L201.359 1102.88ZM198.059 1084.04L201.969 1103.66L198.059 1084.04ZM197.789 1088L204.334 1069.1L197.789 1088ZM223.209 1079.03L227.118 1098.65L223.209 1079.03ZM192.746 867.275L189.812 847.491L192.746 867.275ZM879.572 1163.91L896.2 1175.02L879.572 1163.91ZM192.25 863.967L212.035 861.041L192.25 863.967ZM196.045 866.784L198.972 886.569L196.045 866.784ZM194.882 1170.23L176.726 1178.62L194.882 1170.23ZM192.616 861.695L178.446 847.58L192.616 861.695ZM192.131 863.165L172.347 866.091L192.131 863.165ZM93.3605 559.092L109.621 547.447L93.3605 559.092ZM195.546 858.753L181.377 844.638L195.546 858.753ZM425.738 505.214L405.985 502.084L425.738 505.214ZM283.232 523.395L280.475 543.204L283.232 523.395ZM283.234 523.395L297.376 537.537L283.234 523.395ZM164.903 1468.68L183.083 1460.35L164.903 1468.68ZM164.554 1469.25L146.94 1478.72L164.554 1469.25ZM283.235 523.394L286 503.587L283.235 523.394ZM198.462 1091.64L211.812 1106.54L198.462 1091.64ZM319.583 24.1336L311.92 42.6074C301.155 38.1423 294.387 40.1374 290.419 43.2038L278.19 27.3777L265.962 11.5517C283.431 -1.94673 305.946 -3.1753 327.246 5.6598L319.583 24.1336ZM278.19 27.3777L290.419 43.2037C285.999 46.6191 282.949 52.9795 282.971 60.5807L262.971 60.6404L242.972 60.7002C242.919 43.2546 249.826 24.02 265.962 11.5518L278.19 27.3777ZM262.971 60.6404H282.971V60.6658H262.971H242.971V60.6404H262.971ZM262.971 60.6658L282.971 60.5555C283.092 82.3849 271.712 110.1 255.828 138.707L238.343 128.998L220.857 119.289C236.55 91.0264 243.03 71.3196 242.972 60.7761L262.971 60.6658ZM238.343 128.998L255.828 138.707C253.747 142.455 251.576 146.237 249.33 150.044L232.105 139.879L214.881 129.714C216.967 126.18 218.962 122.703 220.857 119.289L238.343 128.998ZM232.105 139.879L249.328 150.046C234.07 175.893 214.948 203.412 195.069 229.979L179.055 217.997L163.042 206.014C182.45 180.077 200.64 153.838 214.882 129.712L232.105 139.879ZM179.055 217.997L195.069 229.979C149.534 290.831 99.4515 347.441 81.8767 368.147L66.6287 355.205L51.3807 342.263C69.6155 320.779 118.469 265.581 163.042 206.014L179.055 217.997ZM66.6287 355.205L81.8542 368.173C74.9095 376.327 66.9016 385.672 59.7109 395.26L43.7107 383.261L27.7105 371.261C35.7889 360.489 44.6584 350.155 51.4031 342.236L66.6287 355.205ZM43.7107 383.261L59.711 395.26C52.4534 404.937 46.4997 414.255 43.3441 422.249L24.7412 414.905L6.13831 407.561C11.2947 394.499 19.8433 381.751 27.7104 371.261L43.7107 383.261ZM24.7447 414.914L43.3482 422.256C40.8584 428.565 40.6544 432.669 41.327 435.023L22.0964 440.517L2.86591 446.012C-1.34937 431.258 2.34253 417.197 6.14111 407.572L24.7447 414.914ZM22.0964 440.517L41.327 435.023L41.3426 435.078L22.1121 440.572L2.88159 446.066L2.86597 446.012L22.0964 440.517ZM22.1121 440.572L41.3112 434.969C47.0272 454.555 57.2765 473.272 69.6485 491.929L52.9802 502.982L36.312 514.035C22.9393 493.869 10.2453 471.299 2.91302 446.175L22.1121 440.572ZM52.9802 502.982L69.6484 491.929C82.1681 510.809 96.0927 528.557 109.621 547.447L93.3605 559.092L77.1002 570.737C65.0253 553.876 49.2371 533.526 36.3121 514.035L52.9802 502.982ZM93.3637 559.093L109.661 547.499C108.76 546.233 107.709 545.505 107.032 545.142C106.407 544.808 105.951 544.702 105.923 544.695L101.218 564.134L96.5126 583.572C93.362 582.81 83.8116 580.167 77.0667 570.686L93.3637 559.093ZM101.218 564.134L105.922 544.695C105.818 544.67 105.879 544.693 106.146 544.716C106.406 544.739 106.763 544.754 107.229 544.749L107.431 564.748L107.634 584.747C104.845 584.775 100.842 584.62 96.5129 583.572L101.218 564.134ZM107.431 564.748L107.229 544.749C109.255 544.728 112.278 544.35 115.783 543.551L120.231 563.05L124.68 582.549C119.411 583.751 113.404 584.688 107.634 584.747L107.431 564.748ZM120.231 563.05L115.783 543.551C119.237 542.763 122.782 541.651 125.827 540.356L133.655 558.761L141.483 577.165C135.951 579.518 130.102 581.312 124.68 582.549L120.231 563.05ZM133.655 558.761L125.826 540.356C129.002 539.006 130.985 537.727 131.883 536.882L145.585 551.451L159.287 566.02C153.445 571.514 146.556 575.007 141.484 577.165L133.655 558.761ZM145.585 551.451L131.919 536.848C178.604 493.159 234.09 496.361 285.99 503.586L283.232 523.395L280.475 543.204C229.296 536.08 191.275 536.085 159.251 566.054L145.585 551.451ZM283.235 523.394L286 503.587C313.085 507.368 332.441 509.736 347.118 510.607L345.933 530.572L344.749 550.537C328.299 549.561 307.504 546.977 280.469 543.202L283.235 523.394ZM345.933 530.572L347.118 510.607C361.794 511.478 371.092 510.797 378.278 508.879L383.436 528.202L388.595 547.525C375.404 551.046 361.197 551.513 344.749 550.537L345.933 530.572ZM383.436 528.202L378.278 508.879C385.253 507.017 390.926 503.807 398.136 498.363L410.188 514.324L422.24 530.285C412.788 537.422 402.413 543.836 388.595 547.525L383.436 528.202ZM410.188 514.324L398.136 498.363C401.812 495.588 405.753 492.337 410.479 488.425L423.232 503.831L435.986 519.237C431.401 523.032 426.757 526.874 422.24 530.285L410.188 514.324ZM425.738 505.214L445.492 508.344C444.52 514.477 442.854 521.214 440.61 528.42L421.514 522.473L402.419 516.527C404.259 510.618 405.393 505.818 405.985 502.084L425.738 505.214ZM421.514 522.473L440.61 528.42C434.189 549.039 422.837 574.154 408.712 600.9L391.027 591.559L373.342 582.219C386.976 556.403 397.052 533.762 402.419 516.527L421.514 522.473ZM391.027 591.559L408.712 600.9C381.109 653.165 342.185 713.022 306.134 760.388L290.219 748.275L274.305 736.162C309.181 690.339 346.879 632.327 373.342 582.219L391.027 591.559ZM290.219 748.275L306.078 760.462L303.41 763.934L287.552 751.747L271.693 739.56L274.361 736.088L290.219 748.275ZM287.552 751.747L303.411 763.932C278.431 796.444 255.047 823.637 237.9 842.709L223.027 829.338L208.154 815.966C224.775 797.479 247.471 771.086 271.692 739.562L287.552 751.747ZM223.027 829.338L237.9 842.709C229.324 852.248 222.302 859.763 217.413 864.905L202.92 851.123L188.426 837.341C193.084 832.443 199.851 825.202 208.154 815.966L223.027 829.338ZM202.92 851.123L217.413 864.905C214.97 867.474 213.058 869.453 211.75 870.795L197.425 856.839L183.099 842.882C184.298 841.652 186.097 839.79 188.426 837.341L202.92 851.123ZM197.425 856.839L211.75 870.795C211.098 871.464 210.596 871.976 210.253 872.324L196.007 858.287L181.76 844.25C182.049 843.957 182.498 843.499 183.099 842.882L197.425 856.839ZM196.007 858.287L210.252 872.325C210.111 872.468 209.962 872.619 209.86 872.722L195.653 858.645L181.446 844.568C181.498 844.516 181.586 844.426 181.762 844.249L196.007 858.287ZM195.653 858.645L209.795 872.787L209.688 872.895L195.546 858.752L181.404 844.61L181.511 844.503L195.653 858.645ZM195.546 858.753L209.716 872.868L206.785 875.81L192.616 861.695L178.446 847.58L181.377 844.638L195.546 858.753ZM192.131 863.165L211.916 860.238L212.035 861.041L192.25 863.967L172.465 866.894L172.347 866.091L192.131 863.165ZM196.045 866.784L193.117 847L199.704 846.025L202.632 865.809L205.559 885.594L198.972 886.569L196.045 866.784ZM202.632 865.809L205.565 885.593L195.679 887.059L192.746 867.275L189.812 847.491L199.698 846.026L202.632 865.809ZM192.74 867.283L212.526 864.367C212.52 864.321 212.513 864.279 212.508 864.244C212.502 864.209 212.497 864.178 212.493 864.151C212.489 864.125 212.485 864.102 212.482 864.083C212.479 864.064 212.477 864.048 212.475 864.036C212.473 864.023 212.471 864.013 212.47 864.005C212.468 863.998 212.467 863.992 212.467 863.99C212.467 863.988 212.466 863.985 212.466 863.987C212.467 863.988 212.467 863.991 212.468 863.995C212.469 864.004 212.472 864.021 212.475 864.041C212.479 864.062 212.483 864.088 212.488 864.119C212.498 864.18 212.51 864.259 212.524 864.351L192.745 867.313L172.966 870.276C172.978 870.361 172.99 870.434 172.999 870.489C173.007 870.543 173.014 870.584 173.016 870.596C173.017 870.599 173.017 870.601 173.017 870.601C173.017 870.601 173.017 870.601 173.017 870.6C173.017 870.6 173.017 870.6 173.017 870.6C173.017 870.6 173.017 870.599 173.017 870.599C173.017 870.598 173.016 870.596 173.016 870.594C173.015 870.588 173.011 870.568 173.007 870.542C173.003 870.516 172.996 870.473 172.988 870.42C172.979 870.368 172.967 870.291 172.954 870.199L192.74 867.283ZM192.745 867.313L212.531 864.396C212.53 864.388 212.529 864.384 212.53 864.389C212.531 864.393 212.531 864.398 212.533 864.41C212.536 864.432 212.541 864.465 212.547 864.504L192.762 867.431L172.978 870.359C172.976 870.346 172.974 870.333 172.971 870.315C172.97 870.307 172.968 870.294 172.966 870.282C172.965 870.27 172.962 870.251 172.959 870.23L192.745 867.313ZM192.762 867.431L212.547 864.504C212.556 864.563 212.567 864.636 212.578 864.711C212.589 864.788 212.602 864.875 212.616 864.974L192.832 867.901L173.047 870.828C172.889 869.756 173.117 871.303 172.978 870.359L192.762 867.431ZM192.832 867.901L212.616 864.974C212.66 865.267 212.789 866.141 212.887 866.806L193.102 869.732L173.318 872.659C173.179 871.72 173.126 871.364 173.047 870.828L192.832 867.901ZM193.102 869.732L212.887 866.806C213.123 868.401 213.473 870.767 213.916 873.759L194.131 876.683L174.346 879.608C173.902 876.61 173.556 874.271 173.318 872.658L193.102 869.732ZM194.131 876.683L213.916 873.758C214.801 879.75 216.067 888.311 217.585 898.591L197.8 901.513L178.014 904.436C176.496 894.157 175.231 885.598 174.346 879.609L194.131 876.683ZM197.8 901.513L217.585 898.591C220.622 919.153 224.67 946.593 228.719 974.105L208.932 977.017L189.146 979.929C185.098 952.425 181.05 924.993 178.014 904.436L197.8 901.513ZM208.932 977.017L228.719 974.105C232.768 1001.62 236.818 1029.21 239.855 1050.06L220.064 1052.95L200.273 1055.83C197.24 1035 193.194 1007.44 189.146 979.929L208.932 977.017ZM220.064 1052.95L239.855 1050.06C241.374 1060.49 242.641 1069.25 243.529 1075.47L223.729 1078.3L203.93 1081.12C203.05 1074.96 201.79 1066.25 200.273 1055.83L220.064 1052.95ZM223.209 1079.03L227.118 1098.65L201.969 1103.66L198.059 1084.04L194.15 1064.43L219.299 1059.42L223.209 1079.03ZM198.462 1091.64L211.812 1106.54C205.525 1112.17 201.187 1119.86 199.813 1128.48L180.062 1125.33L160.311 1122.19C163.174 1104.21 172.204 1088.32 185.112 1076.75L198.462 1091.64ZM179.332 1126.2H199.332V1136.55H179.332H159.332V1126.2H179.332ZM179.351 1136.63H199.351V1141.66H179.351H159.351V1136.63H179.351ZM183.13 1144.79L201.286 1136.4L213.039 1161.84L194.882 1170.23L176.726 1178.62L164.973 1153.18L183.13 1144.79ZM195.258 1172.91L214.994 1176.15C214.619 1178.44 214.113 1181.13 213.546 1183.82L193.975 1179.7L174.405 1175.57C174.864 1173.39 175.255 1171.3 175.521 1169.68L195.258 1172.91ZM193.975 1179.7L213.546 1183.82C212.981 1186.5 212.335 1189.28 211.672 1191.73L192.37 1186.49L173.067 1181.25C173.469 1179.77 173.94 1177.78 174.405 1175.57L193.975 1179.7ZM192.37 1186.49L211.672 1191.73C211.339 1192.96 210.985 1194.16 210.62 1195.25L191.653 1188.9L172.686 1182.56C172.736 1182.41 172.868 1181.99 173.067 1181.25L192.37 1186.49ZM191.653 1188.9L210.62 1195.25C210.374 1195.98 210.132 1196.65 209.893 1197.24L191.373 1189.69L172.853 1182.14C172.798 1182.27 172.758 1182.37 172.735 1182.43C172.709 1182.5 172.691 1182.55 172.681 1182.58C172.66 1182.63 172.662 1182.63 172.686 1182.56L191.653 1188.9ZM191.373 1189.69L209.165 1198.82C164.38 1286.06 142 1370.73 183.083 1460.35L164.903 1468.68L146.722 1477.01C97.9871 1370.7 126.744 1271.79 173.58 1180.55L191.373 1189.69ZM164.554 1469.25L182.168 1459.77L189.704 1473.79L172.09 1483.26L154.475 1492.73L146.94 1478.72L164.554 1469.25ZM172.09 1483.26L189.779 1473.93C189.846 1474.06 189.909 1474.18 189.933 1474.22C189.967 1474.29 189.967 1474.29 189.959 1474.27L172.282 1483.63L154.605 1492.98C154.533 1492.85 154.468 1492.72 154.439 1492.67C154.399 1492.59 154.398 1492.59 154.4 1492.59L172.09 1483.26ZM172.282 1483.63L189.92 1474.2L190.003 1474.35L172.365 1483.78L154.727 1493.21L154.644 1493.06L172.282 1483.63ZM172.365 1483.78L190.423 1475.19C192.643 1479.85 193.128 1485.03 192.918 1489.76L172.937 1488.87L152.957 1487.99C152.975 1487.58 152.931 1487.77 153.029 1488.41C153.078 1488.74 153.171 1489.23 153.346 1489.85C153.513 1490.44 153.803 1491.32 154.307 1492.38L172.365 1483.78ZM172.937 1488.87L192.918 1489.76C192.698 1494.71 191.687 1499.79 190.464 1504.38L171.14 1499.22L151.817 1494.06C152.624 1491.04 152.912 1489.01 152.957 1487.99L172.937 1488.87ZM171.145 1499.22L190.276 1505.06L165.657 1585.84L146.526 1580.01L127.395 1574.18L152.014 1493.39L171.145 1499.22ZM156.039 1592.92L156.144 1572.92L931.302 1577L931.197 1597L931.092 1617L155.934 1612.92L156.039 1592.92ZM940.728 1583.81L921.771 1590.19L894.179 1508.1L913.137 1501.73L932.095 1495.36L959.686 1577.44L940.728 1583.81ZM915.318 1477.04L897.557 1467.85C917.856 1428.64 926.652 1388.41 924.513 1347.73L944.485 1346.68L964.458 1345.63C966.99 1393.78 956.472 1441.05 933.078 1486.24L915.318 1477.04ZM944.485 1346.68L924.512 1347.72C922.043 1300.01 904.463 1251.21 871.661 1202.42L888.259 1191.26L904.857 1180.1C940.849 1233.64 961.544 1289.32 964.458 1345.65L944.485 1346.68ZM888.259 1191.26L871.653 1202.41C870.266 1200.34 868.798 1198.27 867.224 1196.05L883.558 1184.51L899.892 1172.96C901.365 1175.05 903.15 1177.56 904.864 1180.11L888.259 1191.26ZM883.558 1184.51L867.224 1196.05C865.678 1193.86 864.046 1191.54 862.478 1189.16L879.171 1178.15L895.863 1167.13C897.039 1168.91 898.332 1170.76 899.892 1172.96L883.558 1184.51ZM879.572 1163.91L862.944 1152.8L878.965 1128.82L895.594 1139.94L912.222 1151.05L896.2 1175.02L879.572 1163.91ZM897.279 1134.38H877.279C877.279 1125.12 876.395 1117.79 874.135 1110.87L893.146 1104.66L912.157 1098.45C916.156 1110.68 917.279 1122.55 917.279 1134.38H897.279ZM893.146 1104.66L874.135 1110.87C872.276 1105.18 869.374 1099.44 864.831 1092.98L881.188 1081.48L897.545 1069.97C903.972 1079.1 908.865 1088.37 912.157 1098.45L893.146 1104.66ZM876.669 1074.3L860.373 1085.89C860.391 1085.92 860.325 1085.82 860.13 1085.62C859.938 1085.42 859.67 1085.17 859.317 1084.87L872.22 1069.59L885.124 1054.31C887.542 1056.35 890.428 1059.14 892.965 1062.7L876.669 1074.3ZM872.22 1069.59L859.316 1084.87C857.812 1083.6 855.329 1082 852.128 1080.6L860.13 1062.27L868.131 1043.94C874.278 1046.63 880.202 1050.15 885.125 1054.31L872.22 1069.59ZM860.13 1062.27L852.128 1080.6C848.775 1079.14 844.832 1077.99 840.839 1077.64L842.579 1057.72L844.318 1037.8C853.347 1038.58 861.521 1041.06 868.131 1043.94L860.13 1062.27ZM839.571 1054.82L819.696 1057.05C819.101 1051.75 817.905 1045.97 816.644 1037.74L836.414 1034.71L856.183 1031.69C857.022 1037.16 858.759 1046.47 859.446 1052.59L839.571 1054.82ZM836.414 1034.71L816.644 1037.74C814.237 1022.03 812.359 1001.43 818.863 977.842L838.143 983.159L857.424 988.476C853.106 1004.13 854.123 1018.24 856.183 1031.69L836.414 1034.71ZM838.143 983.159L818.863 977.842C828.793 941.834 846.749 899.598 862.54 860.242L881.101 867.689L899.663 875.137C883.252 916.039 866.577 955.281 857.424 988.476L838.143 983.159ZM881.101 867.689L862.54 860.242C878.59 820.24 892.213 783.628 895.045 756.934L914.933 759.044L934.822 761.154C931.293 794.422 915.197 836.419 899.663 875.137L881.101 867.689ZM914.933 759.044L895.066 756.747L895.473 753.224L915.341 755.52L935.208 757.817L934.801 761.34L914.933 759.044ZM915.341 755.52L895.466 753.282C911.856 607.742 881.213 428.815 800.205 289.956L817.48 279.878L834.755 269.8C920.502 416.781 952.475 604.484 935.215 757.758L915.341 755.52ZM817.48 279.878L800.205 289.956C718.798 150.414 587.238 52.1949 401.479 67.0814L399.882 47.1453L398.284 27.2092C603.151 10.7915 747.717 120.604 834.755 269.8L817.48 279.878ZM399.882 47.1453L400.745 67.1267C379.864 68.0284 356.021 64.6216 336.373 55.9799L344.425 37.6724L352.477 19.3649C365.464 25.0768 382.997 27.8559 399.019 27.1639L399.882 47.1453ZM344.664 34.5915L336.978 53.0558L312.703 42.9515L320.388 24.4871L328.074 6.02277L352.349 16.1271L344.664 34.5915ZM320.388 24.4871L312.217 42.7417C312.034 42.6599 311.887 42.5947 311.759 42.5386L319.744 24.202L327.729 5.86529C328.03 5.99629 328.312 6.12183 328.56 6.23255L320.388 24.4871ZM319.744 24.202L311.704 42.5148L311.624 42.4797L319.664 24.1668L327.704 5.85393L327.784 5.88908L319.744 24.202ZM319.664 24.1668L312.083 42.6742L312.001 42.641L319.583 24.1336L327.164 5.62622L327.245 5.65942L319.664 24.1668ZM180.792 1501.88L199.923 1507.71L175.223 1588.75L156.092 1582.92L136.96 1577.09L161.661 1496.05L180.792 1501.88ZM156.092 1582.92L156.197 1562.92L931.355 1567L931.249 1587L931.144 1607L155.986 1602.92L156.092 1582.92ZM931.249 1587L931.144 1607L155.986 1602.92L156.092 1582.92L156.197 1562.92L931.355 1567L931.249 1587ZM156.092 1582.92L136.96 1577.09L161.66 1496.05L180.791 1501.88L199.922 1507.71L175.223 1588.75L156.092 1582.92ZM912.774 1459.38L930.992 1467.64C930.889 1467.86 930.753 1468.16 930.621 1468.45L912.428 1460.14L894.236 1451.83C894.335 1451.62 894.43 1451.41 894.556 1451.13L912.774 1459.38ZM912.428 1460.14L894.235 1451.84C894.335 1451.62 894.432 1451.4 894.556 1451.13L912.774 1459.38L930.993 1467.63C930.886 1467.87 930.754 1468.16 930.622 1468.45L912.428 1460.14ZM913.533 1457.7L931.808 1465.82C931.748 1465.96 931.691 1466.08 931.651 1466.17C931.605 1466.27 931.582 1466.33 931.558 1466.38L913.301 1458.21L895.043 1450.05C895.237 1449.62 895.151 1449.81 895.257 1449.57L913.533 1457.7ZM913.301 1458.21L895.043 1450.05C895.166 1449.77 895.285 1449.51 895.4 1449.25L913.686 1457.35L931.973 1465.45C931.832 1465.77 931.693 1466.08 931.558 1466.38L913.301 1458.21ZM913.686 1457.35L931.974 1465.44C931.969 1465.46 931.962 1465.47 931.931 1465.54C931.906 1465.6 931.86 1465.71 931.808 1465.82L913.533 1457.7L895.258 1449.57C895.256 1449.57 895.258 1449.57 895.263 1449.56C895.269 1449.54 895.277 1449.53 895.289 1449.5C895.308 1449.46 895.353 1449.35 895.399 1449.25L913.686 1457.35ZM925.509 1424.99L944.722 1430.54C944.262 1432.13 943.788 1433.71 943.301 1435.28L924.195 1429.37L905.089 1423.46C905.506 1422.11 905.908 1420.77 906.295 1419.43L925.509 1424.99ZM924.195 1429.37L905.06 1423.55L905.727 1421.36L924.862 1427.18L943.997 1433L943.33 1435.19L924.195 1429.37ZM924.862 1427.18L905.702 1421.44C905.909 1420.75 906.106 1420.08 906.295 1419.43L925.509 1424.99L944.722 1430.54C944.488 1431.35 944.253 1432.14 944.022 1432.91L924.862 1427.18ZM932.889 1389.64L952.723 1392.22C952.713 1392.29 952.69 1392.46 952.69 1392.47L932.859 1389.87L913.029 1387.27C913.048 1387.13 913.046 1387.14 913.056 1387.07L932.889 1389.64ZM932.859 1389.87L913.028 1387.28C913.062 1387.02 913.081 1386.86 913.133 1386.45L932.974 1388.96L952.815 1391.48C952.791 1391.67 952.736 1392.12 952.69 1392.47L932.859 1389.87ZM932.974 1388.96L952.815 1391.48C952.806 1391.56 952.797 1391.63 952.781 1391.76C952.766 1391.88 952.746 1392.04 952.723 1392.22L932.889 1389.64L913.056 1387.07C913.091 1386.8 913.069 1386.95 913.134 1386.45L932.974 1388.96ZM933.248 1386.73L953.112 1389.06C953.061 1389.49 953.008 1389.93 952.954 1390.38L933.102 1387.94L913.251 1385.51C913.296 1385.14 913.34 1384.77 913.384 1384.4L933.248 1386.73ZM933.102 1387.94L913.25 1385.51C913.296 1385.14 913.34 1384.77 913.383 1384.4L933.248 1386.73L953.112 1389.05C953.06 1389.5 953.008 1389.94 952.954 1390.37L933.102 1387.94ZM933.424 1385.2L953.303 1387.39C953.267 1387.71 953.216 1388.15 953.197 1388.32L933.326 1386.05L913.455 1383.78C913.501 1383.38 913.517 1383.25 913.544 1383L933.424 1385.2ZM933.326 1386.05L913.455 1383.78C913.501 1383.38 913.544 1383 913.584 1382.62L933.468 1384.78L953.351 1386.94C953.299 1387.41 953.247 1387.88 953.197 1388.32L933.326 1386.05ZM933.468 1384.78L953.351 1386.94C953.348 1386.96 953.345 1386.99 953.337 1387.07C953.329 1387.14 953.317 1387.26 953.303 1387.39L933.424 1385.2L913.544 1383C913.575 1382.73 913.529 1383.14 913.584 1382.63L933.468 1384.78ZM933.658 1382.97L953.558 1384.97C953.53 1385.25 953.475 1385.76 953.467 1385.84L933.574 1383.77L913.681 1381.7C913.729 1381.25 913.732 1381.23 913.758 1380.97L933.658 1382.97ZM933.574 1383.77L913.682 1381.7C913.722 1381.31 913.745 1381.1 913.771 1380.84L933.672 1382.83L953.572 1384.82C953.536 1385.19 953.491 1385.61 953.466 1385.84L933.574 1383.77ZM933.672 1382.83L953.576 1384.78L953.563 1384.92L933.658 1382.97L913.753 1381.02L913.767 1380.88L933.672 1382.83ZM934.137 1377.56L954.078 1379.1C953.983 1380.34 953.878 1381.59 953.761 1382.86L933.845 1381.02L913.93 1379.19C914.026 1378.14 914.114 1377.09 914.197 1376.02L934.137 1377.56ZM933.845 1381.02L913.922 1379.27L914.082 1377.46L934.005 1379.21L953.928 1380.96L953.769 1382.77L933.845 1381.02ZM934.005 1379.21L914.075 1377.53C914.117 1377.04 914.157 1376.54 914.197 1376.02L934.137 1377.56L954.078 1379.1C954.033 1379.68 953.986 1380.28 953.934 1380.89L934.005 1379.21ZM934.223 1376.4L954.172 1377.84C954.154 1378.08 954.127 1378.48 954.099 1378.83L934.157 1377.32L914.215 1375.8C914.234 1375.55 914.249 1375.33 914.275 1374.96L934.223 1376.4ZM934.157 1377.32L914.215 1375.8C914.234 1375.55 914.249 1375.33 914.275 1374.96L934.223 1376.4L954.172 1377.84C954.154 1378.08 954.127 1378.48 954.099 1378.83L934.157 1377.32ZM934.388 1373.92L954.351 1375.15C954.322 1375.61 954.288 1376.18 954.25 1376.74L934.296 1375.39L914.341 1374.04C914.369 1373.63 914.395 1373.21 914.426 1372.7L934.388 1373.92ZM934.296 1375.39L914.341 1374.04C914.369 1373.63 914.395 1373.21 914.426 1372.7L934.388 1373.92L954.351 1375.15C954.322 1375.61 954.288 1376.18 954.25 1376.74L934.296 1375.39ZM934.474 1372.46L954.444 1373.55C954.421 1373.97 954.397 1374.41 954.37 1374.85L934.406 1373.65L914.442 1372.45C914.463 1372.1 914.484 1371.74 914.505 1371.36L934.474 1372.46ZM934.406 1373.65L914.442 1372.45C914.463 1372.1 914.484 1371.74 914.505 1371.36L934.474 1372.46L954.444 1373.55C954.421 1373.97 954.397 1374.41 954.37 1374.85L934.406 1373.65ZM934.564 1370.7L954.542 1371.64C954.528 1371.94 954.51 1372.32 954.491 1372.69L934.517 1371.66L914.544 1370.63C914.558 1370.36 914.57 1370.09 914.587 1369.75L934.564 1370.7ZM934.517 1371.66L914.544 1370.63C914.558 1370.36 914.57 1370.09 914.587 1369.75L934.564 1370.7L954.542 1371.64C954.528 1371.94 954.51 1372.32 954.491 1372.69L934.517 1371.66ZM934.648 1368.75L954.633 1369.53C954.62 1369.86 954.606 1370.22 954.589 1370.6L934.608 1369.74L914.627 1368.87C914.639 1368.59 914.651 1368.3 914.663 1367.97L934.648 1368.75ZM934.608 1369.74L914.627 1368.87C914.639 1368.59 914.651 1368.3 914.663 1367.97L934.648 1368.75L954.633 1369.53C954.62 1369.86 954.606 1370.22 954.589 1370.6L934.608 1369.74ZM934.7 1367.36L954.689 1368.02C954.684 1368.18 954.678 1368.34 954.674 1368.45C954.669 1368.57 954.666 1368.63 954.664 1368.7L934.677 1367.99L914.689 1367.27C914.707 1366.79 914.702 1366.96 914.711 1366.7L934.7 1367.36ZM934.677 1367.99L914.689 1367.27C914.703 1366.89 914.715 1366.55 914.725 1366.22L934.716 1366.84L954.706 1367.45C954.693 1367.89 954.678 1368.32 954.664 1368.7L934.677 1367.99ZM934.716 1366.84L954.706 1367.45C954.704 1367.51 954.703 1367.57 954.7 1367.67C954.697 1367.76 954.693 1367.89 954.689 1368.02L934.7 1367.36L914.711 1366.7C914.718 1366.5 914.714 1366.59 914.725 1366.22L934.716 1366.84ZM934.763 1365.12L954.758 1365.59C954.751 1365.89 954.739 1366.31 954.735 1366.45L934.742 1365.91L914.749 1365.37C914.76 1364.99 914.764 1364.88 914.769 1364.65L934.763 1365.12ZM934.742 1365.91L914.749 1365.38C914.76 1364.99 914.768 1364.7 914.774 1364.4L934.769 1364.85L954.764 1365.29C954.755 1365.71 954.743 1366.13 954.735 1366.45L934.742 1365.91ZM934.769 1364.85L954.764 1365.29C954.764 1365.32 954.763 1365.34 954.762 1365.4C954.761 1365.45 954.76 1365.52 954.758 1365.59L934.763 1365.12L914.769 1364.65C914.772 1364.54 914.769 1364.63 914.774 1364.41L934.769 1364.85ZM201.941 1102.24L216.631 1115.81C216.516 1115.93 216.404 1116.06 216.292 1116.18L201.359 1102.88L186.425 1089.57C186.698 1089.27 186.974 1088.96 187.252 1088.66L201.941 1102.24ZM201.358 1102.88L186.425 1089.57C186.697 1089.27 186.973 1088.96 187.251 1088.66L201.941 1102.23L216.63 1115.81C216.516 1115.93 216.403 1116.06 216.292 1116.18L201.358 1102.88ZM837.136 952.986L818.231 946.458C818.642 945.267 819.057 944.081 819.47 942.905L838.338 949.54L857.205 956.175C856.808 957.304 856.42 958.415 856.04 959.514L837.136 952.986ZM838.338 949.54L857.206 956.173C856.809 957.301 856.421 958.413 856.041 959.514L837.136 952.986L818.231 946.459C818.642 945.269 819.056 944.084 819.47 942.906L838.338 949.54ZM838.483 949.128L819.62 942.481C819.987 941.44 820.359 940.391 820.736 939.337L839.568 946.07L858.401 952.803C858.047 953.793 857.696 954.783 857.346 955.775L838.483 949.128ZM839.568 946.07L858.401 952.802C858.046 953.794 857.695 954.785 857.347 955.773L838.483 949.128L819.619 942.483C819.987 941.438 820.359 940.39 820.735 939.338L839.568 946.07ZM839.702 945.697L820.873 938.954C821.292 937.783 821.72 936.593 822.157 935.392L840.954 942.223L859.751 949.055C859.344 950.176 858.938 951.302 858.531 952.44L839.702 945.697ZM840.954 942.223L859.751 949.055C859.343 950.176 858.938 951.303 858.531 952.439L839.702 945.697L820.872 938.955C821.292 937.782 821.721 936.593 822.157 935.392L840.954 942.223ZM856.363 902.261L837.785 894.853L838.091 894.087L856.669 901.494L875.246 908.901L874.941 909.668L856.363 902.261ZM856.669 901.494L838.106 894.049C838.322 893.51 838.652 892.695 838.834 892.242L857.391 899.7L875.949 907.158C875.65 907.902 875.495 908.282 875.231 908.939L856.669 901.494ZM857.391 899.7L875.948 907.159C875.605 908.014 875.265 908.859 874.927 909.703L856.363 902.261L837.799 894.818C838.145 893.955 838.492 893.094 838.834 892.241L857.391 899.7ZM858.948 895.835L840.4 888.354C841.765 884.969 843.135 881.58 844.506 878.193L863.044 885.7L881.582 893.207C880.217 896.575 878.855 899.947 877.496 903.316L858.948 895.835ZM863.044 885.7L881.582 893.207C880.217 896.576 878.855 899.947 877.497 903.315L858.948 895.835L840.4 888.355C841.765 884.968 843.135 881.579 844.506 878.193L863.044 885.7ZM881.943 838.217L900.626 845.354C900.156 846.585 899.683 847.816 899.208 849.046L880.55 841.845L861.891 834.643C862.352 833.448 862.809 832.26 863.26 831.079L881.943 838.217ZM880.55 841.845L861.89 834.645C862.351 833.451 862.808 832.262 863.26 831.079L881.943 838.216L900.626 845.354C900.156 846.583 899.684 847.813 899.209 849.044L880.55 841.845ZM398.467 598.873L416.117 608.278C415.237 609.93 414.345 611.59 413.443 613.257L395.854 603.737L378.266 594.217C379.126 592.628 379.976 591.044 380.816 589.468L398.467 598.873ZM395.854 603.737L378.248 594.25L379.602 591.736L397.209 601.223L414.815 610.711L413.461 613.224L395.854 603.737ZM397.209 601.223L379.588 591.762C380.003 590.99 380.412 590.226 380.816 589.468L398.467 598.873L416.117 608.278C415.688 609.084 415.258 609.887 414.829 610.685L397.209 601.223ZM389.609 515.388L397.973 533.555C397.56 533.746 397.061 533.973 396.517 534.209L388.547 515.866L380.577 497.523C380.745 497.449 380.953 497.356 381.245 497.221L389.609 515.388ZM388.547 515.866L380.577 497.522C380.752 497.446 380.964 497.351 381.252 497.218L389.609 515.388L397.967 533.559C397.549 533.751 397.054 533.976 396.517 534.209L388.547 515.866ZM215.264 510.192L213.277 490.291C213.729 490.246 214.183 490.202 214.639 490.16L216.482 510.075L218.325 529.99C217.969 530.023 217.611 530.057 217.251 530.093L215.264 510.192ZM216.482 510.075L214.704 490.154L214.758 490.149L216.537 510.07L218.316 529.991L218.261 529.996L216.482 510.075ZM216.537 510.07L218.373 529.986C217.995 530.021 217.621 530.056 217.252 530.093L215.264 510.192L213.277 490.291C213.755 490.243 214.23 490.198 214.7 490.155L216.537 510.07ZM218.869 509.871L217.368 489.927L218.536 489.839L220.037 509.783L221.538 529.727L220.37 529.815L218.869 509.871ZM220.037 509.783L218.602 489.835C218.75 489.824 219 489.807 219.038 489.804L220.43 509.756L221.823 529.707C221.599 529.723 221.586 529.723 221.472 529.731L220.037 509.783ZM220.43 509.756L221.823 529.707C221.344 529.741 220.883 529.774 220.436 529.809L218.869 509.871L217.302 489.932C217.895 489.886 218.475 489.843 219.038 489.804L220.43 509.756ZM220.839 509.727L219.491 489.773C220.054 489.735 220.624 489.698 221.201 489.664L222.379 509.63L223.556 529.595C223.105 529.622 222.649 529.651 222.186 529.682L220.839 509.727ZM222.379 509.63L223.556 529.595C223.106 529.622 222.649 529.651 222.186 529.682L220.839 509.727L219.492 489.773C220.054 489.735 220.624 489.698 221.201 489.664L222.379 509.63ZM436.382 493.842L456.329 492.398C456.345 492.612 456.366 492.909 456.385 493.24L436.418 494.387L416.451 495.533C416.449 495.498 416.444 495.432 416.434 495.285L436.382 493.842ZM436.418 494.387L416.451 495.541C416.449 495.497 416.444 495.424 416.434 495.286L436.382 493.842L456.329 492.397C456.346 492.62 456.366 492.91 456.384 493.232L436.418 494.387ZM436.347 493.384L456.274 491.677C456.286 491.812 456.295 491.926 456.298 491.967C456.299 491.978 456.299 491.99 456.3 491.995C456.3 492.002 456.301 492.004 456.301 492.005C456.301 492.008 456.3 491.995 456.298 491.974L436.362 493.571L416.426 495.169C416.422 495.116 416.418 495.072 416.416 495.043C416.415 495.028 416.414 495.015 416.413 495.007C416.413 494.996 416.412 494.993 416.412 494.988C416.411 494.98 416.412 494.988 416.413 495.004C416.415 495.02 416.417 495.05 416.42 495.09L436.347 493.384ZM436.362 493.571L416.426 495.166C416.415 495.036 416.406 494.933 416.398 494.852L436.293 492.807L456.188 490.763C456.231 491.185 456.268 491.591 456.298 491.976L436.362 493.571ZM436.293 492.807L456.203 490.918L456.258 491.494L436.347 493.384L416.437 495.273L416.382 494.697L436.293 492.807ZM436.02 490.802L455.735 487.434C455.766 487.618 455.794 487.79 455.804 487.851L436.06 491.045L416.317 494.238C416.313 494.216 416.311 494.201 416.308 494.186C416.306 494.172 416.305 494.163 416.304 494.157C416.302 494.144 416.303 494.151 416.306 494.169L436.02 490.802ZM436.06 491.045L416.313 494.215C416.309 494.187 416.304 494.159 416.299 494.129L436.02 490.802L455.742 487.474C455.764 487.606 455.786 487.739 455.807 487.874L436.06 491.045ZM433.002 483.001L445.379 498.711C443.885 499.888 442.447 501.033 441.061 502.148L428.528 486.561L415.996 470.975C417.483 469.779 419.025 468.551 420.624 467.291L433.002 483.001ZM428.528 486.561L415.994 470.976C417.48 469.781 419.021 468.553 420.624 467.29L433.001 483L445.379 498.71C443.888 499.885 442.451 501.03 441.062 502.146L428.528 486.561ZM402.704 56.9559V76.9559H402.703V56.9559V36.9559H402.704V56.9559ZM402.703 56.9559L401.188 37.0133C401.961 36.9546 402.733 36.8977 403.506 36.8425L404.929 56.7918L406.353 76.7411C405.643 76.7918 404.931 76.8442 404.218 76.8984L402.703 56.9559ZM404.929 56.7918L403.506 36.8425C403.757 36.8246 404.088 36.802 404.262 36.7898L405.658 56.741L407.054 76.6923C406.743 76.714 406.588 76.7243 406.353 76.7411L404.929 56.7918ZM405.658 56.741L407.055 76.6922C406.1 76.759 405.156 76.8272 404.219 76.8984L402.704 56.9559L401.189 37.0133C402.224 36.9347 403.25 36.8607 404.261 36.7899L405.658 56.741ZM406.463 56.6854L405.099 36.7319C406.097 36.6637 407.108 36.5968 408.128 36.5334L409.368 56.4949L410.608 76.4564C409.693 76.5133 408.768 76.5744 407.827 76.6388L406.463 56.6854ZM409.368 56.4949L410.608 76.4564C409.694 76.5133 408.768 76.5744 407.826 76.6388L406.463 56.6854L405.099 36.7319C406.097 36.6637 407.108 36.5968 408.128 36.5334L409.368 56.4949ZM433.001 483L420.624 467.29C433.68 457.004 453.002 466.22 453.002 483.001H433.002H413.002C413.002 499.781 432.323 508.996 445.379 498.71L433.001 483ZM388.547 515.866L396.517 534.209C394.002 535.302 391.289 535.866 388.547 535.866V515.866V495.866C385.805 495.866 383.092 496.43 380.577 497.523L388.547 515.866ZM181.332 1143.64V1123.64C189.903 1123.64 197.692 1128.62 201.286 1136.4L183.13 1144.79L164.973 1153.18C167.92 1159.56 174.305 1163.64 181.332 1163.64V1143.64ZM837.136 952.986H817.136C817.136 950.765 817.506 948.559 818.231 946.458L837.136 952.986L856.04 959.514C856.766 957.413 857.136 955.207 857.136 952.986H837.136ZM180.791 1501.88L161.66 1496.05C168.198 1474.59 200.792 1478.33 200.792 1501.88H180.792H160.792C160.792 1525.42 193.384 1529.16 199.922 1507.71L180.791 1501.88ZM931.25 1587H951.25C951.25 1598.09 942.231 1607.06 931.144 1607L931.249 1587L931.355 1567C920.268 1566.94 911.25 1575.91 911.25 1587H931.25ZM93.3621 559.092L84.4178 541.204C93.4046 536.71 104.058 539.624 109.661 547.499L93.3637 559.093L77.0667 570.686C82.6682 578.56 93.3207 581.473 102.306 576.981L93.3621 559.092ZM931.249 1587L931.355 1567C941.18 1567.05 951.25 1574.85 951.25 1587H931.25H911.25C911.25 1599.15 921.32 1606.95 931.144 1607L931.249 1587ZM179.351 1141.66H199.351C199.351 1131.71 191.284 1123.64 181.332 1123.64V1143.64V1163.64C169.192 1163.64 159.351 1153.8 159.351 1141.66H179.351ZM837.136 952.986H857.136C857.136 930.477 825.614 925.077 818.231 946.459L837.136 952.986L856.041 959.514C848.658 980.896 817.136 975.496 817.136 952.986H837.136ZM180.792 1501.88L161.661 1496.05C161.085 1497.94 160.792 1499.9 160.792 1501.88H180.792H200.792C200.792 1503.85 200.499 1505.82 199.923 1507.71L180.792 1501.88ZM433.002 483.001L420.624 467.291C415.819 471.077 413.002 476.862 413.002 483.001H433.002H453.002C453.002 489.139 450.184 494.925 445.379 498.711L433.002 483.001ZM842.579 1057.72L840.839 1077.64C830.057 1076.7 820.963 1068.33 819.696 1057.05L839.571 1054.82L859.446 1052.59C858.529 1044.42 851.981 1038.47 844.318 1037.8L842.579 1057.72ZM881.188 1081.48L864.831 1092.98C863.489 1091.08 862.369 1089.16 861.728 1088.08C860.947 1086.76 860.631 1086.26 860.373 1085.89L876.669 1074.3L892.965 1062.7C894.343 1064.64 895.475 1066.57 896.138 1067.69C896.941 1069.04 897.262 1069.57 897.545 1069.97L881.188 1081.48ZM913.137 1501.73L894.179 1508.1C889.561 1494.36 891.339 1479.86 897.557 1467.85L915.318 1477.04L933.078 1486.24C931.389 1489.5 931.233 1492.79 932.095 1495.36L913.137 1501.73ZM388.547 515.866V535.866C366.839 535.866 360.692 506.162 380.577 497.522L388.547 515.866L396.517 534.209C416.401 525.569 410.254 495.866 388.547 495.866V515.866ZM931.197 1597L931.302 1577C924.443 1576.97 919.586 1583.69 921.771 1590.19L940.728 1583.81L959.686 1577.44C966.241 1596.94 951.668 1617.11 931.092 1617L931.197 1597ZM171.14 1499.22L190.464 1504.38C193.532 1492.88 185.921 1481.13 173.971 1479.42L171.143 1499.22L168.314 1519.02C156.361 1517.31 148.747 1505.56 151.817 1494.06L171.14 1499.22ZM881.943 838.216L863.26 831.079C871.213 810.262 901.943 816.108 901.943 838.217H881.943H861.943C861.943 860.325 892.673 866.171 900.626 845.354L881.943 838.216ZM146.526 1580.01L165.657 1585.84C167.61 1579.43 162.838 1572.96 156.145 1572.92L156.039 1592.92L155.933 1612.92C135.851 1612.81 121.538 1593.39 127.395 1574.17L146.526 1580.01ZM881.943 838.217L863.26 831.079C862.389 833.358 861.943 835.777 861.943 838.217H881.943H901.943C901.943 840.656 901.497 843.075 900.626 845.354L881.943 838.217ZM171.143 1499.22L173.971 1479.42C186.118 1481.16 193.853 1493.32 190.276 1505.06L171.145 1499.22L152.014 1493.39C148.438 1505.13 156.171 1517.29 168.314 1519.02L171.143 1499.22ZM180.062 1125.33L199.813 1128.48C198.534 1136.51 192.583 1143.14 184.517 1145.14L179.699 1125.73L174.881 1106.32C167.195 1108.23 161.529 1114.54 160.311 1122.19L180.062 1125.33ZM201.941 1102.24L187.252 1088.66C183.837 1092.36 181.941 1097.2 181.941 1102.23H201.941H221.941C221.941 1107.27 220.045 1112.11 216.631 1115.81L201.941 1102.24ZM24.7412 414.905L43.3441 422.249C47.1833 412.524 42.8771 401.616 33.6872 397.021L24.7429 414.909L15.7986 432.798C6.60547 428.201 2.29773 417.29 6.13831 407.561L24.7412 414.905ZM344.556 36.1541L339.473 16.8109C321.727 21.4745 320.038 46.0046 336.978 53.0558L344.664 34.5915L352.349 16.1271C370.75 23.7863 368.916 50.4317 349.639 55.4974L344.556 36.1541ZM201.941 1102.23L187.251 1088.66C199.601 1075.3 221.941 1084.03 221.941 1102.23H201.941H181.941C181.941 1120.44 204.281 1129.17 216.63 1115.81L201.941 1102.23ZM179.342 1136.59L197.476 1128.15C198.711 1130.81 199.351 1133.7 199.351 1136.63H179.351H159.351C159.351 1139.53 159.985 1142.4 161.207 1145.02L179.342 1136.59ZM344.425 37.6724L336.373 55.9799C317.648 47.7445 321.131 21.6309 339.473 16.8109L344.556 36.1541L349.639 55.4974C366.489 51.0696 369.789 26.979 352.477 19.3649L344.425 37.6724ZM201.358 1102.88H181.358C181.358 1097.97 183.161 1093.24 186.425 1089.57L201.358 1102.88L216.292 1116.18C219.555 1112.52 221.358 1107.78 221.358 1102.88H201.358ZM179.332 1136.55H199.332C199.332 1133.65 198.698 1130.78 197.476 1128.15L179.342 1136.59L161.207 1145.02C159.972 1142.37 159.332 1139.47 159.332 1136.55H179.332ZM24.7429 414.909L33.6872 397.021C42.9182 401.636 47.172 412.568 43.3482 422.256L24.7447 414.914L6.14111 407.572C2.31873 417.257 6.57098 428.184 15.7986 432.798L24.7429 414.909ZM201.359 1102.88L216.292 1116.18C204.066 1129.9 181.358 1121.26 181.358 1102.88H201.358H221.358C221.358 1084.5 198.651 1075.85 186.425 1089.57L201.359 1102.88ZM179.699 1125.73L184.517 1145.14C193.221 1142.98 199.332 1135.17 199.332 1126.2H179.332H159.332C159.332 1116.79 165.746 1108.59 174.881 1106.32L179.699 1125.73ZM198.059 1084.04L201.969 1103.66C219.916 1100.08 221.627 1075.09 204.334 1069.1L197.789 1088L191.243 1106.9C169.996 1099.54 172.098 1068.83 194.15 1064.43L198.059 1084.04ZM223.729 1078.3L243.529 1075.47C245.076 1086.32 237.884 1096.5 227.118 1098.65L223.209 1079.03L219.299 1059.42C209.216 1061.43 202.481 1070.96 203.93 1081.12L223.729 1078.3ZM895.594 1139.94L878.964 1128.83C877.865 1130.47 877.279 1132.4 877.279 1134.38H897.279H917.279C917.279 1140.31 915.52 1146.11 912.223 1151.05L895.594 1139.94ZM192.746 867.275L195.679 887.059C206.484 885.457 214.149 875.396 212.527 864.372L192.74 867.283L172.953 870.194C171.33 859.162 179 849.095 189.812 847.491L192.746 867.275ZM879.171 1178.15L862.478 1189.16C854.558 1177.16 856.244 1162.82 862.944 1152.8L879.572 1163.91L896.2 1175.02C897.119 1173.65 898.054 1170.45 895.863 1167.13L879.171 1178.15ZM192.25 863.967L212.035 861.041C210.689 851.939 202.219 845.653 193.117 847L196.045 866.784L198.972 886.569C186.22 888.456 174.352 879.647 172.465 866.894L192.25 863.967ZM194.882 1170.23L213.039 1161.84C215.033 1166.16 215.816 1171.13 214.994 1176.15L195.258 1172.91L175.521 1169.68C174.998 1172.87 175.505 1175.98 176.726 1178.62L194.882 1170.23ZM192.616 861.695L206.785 875.81C210.858 871.721 212.761 865.948 211.916 860.238L192.131 863.165L172.347 866.091C171.343 859.304 173.604 852.441 178.446 847.58L192.616 861.695ZM93.3605 559.092L109.621 547.447C103.885 539.438 93.1943 536.815 84.4178 541.204L93.3621 559.092L102.306 576.981C93.5287 581.369 82.8363 578.746 77.1002 570.737L93.3605 559.092ZM195.546 858.753V838.753C213.346 838.753 222.278 860.257 209.716 872.868L195.546 858.753L181.377 844.638C168.815 857.248 177.747 878.753 195.546 878.753V858.753ZM423.232 503.831L410.479 488.425C424.792 476.576 448.802 487.452 445.492 508.344L425.738 505.214L405.985 502.084C403.124 520.137 423.886 529.253 435.986 519.237L423.232 503.831ZM283.232 523.395L285.99 503.586C279.752 502.718 273.505 504.839 269.092 509.253L283.234 523.395L297.376 537.537C292.962 541.951 286.713 544.073 280.475 543.204L283.232 523.395ZM164.903 1468.68L183.083 1460.35C189.004 1473.26 179.946 1488.96 164.726 1488.96V1468.96V1448.96C149.791 1448.96 140.919 1464.36 146.722 1477.01L164.903 1468.68ZM164.726 1468.96V1488.96C179.707 1488.96 189.264 1472.97 182.168 1459.77L164.554 1469.25L146.94 1478.72C139.704 1465.27 149.449 1448.96 164.726 1448.96V1468.96ZM283.234 523.395L269.092 509.253C273.589 504.755 279.874 502.731 286 503.587L283.235 523.394L280.469 543.202C286.594 544.057 292.879 542.034 297.376 537.537L283.234 523.395ZM195.546 858.752L209.688 872.895C222.286 860.296 213.365 838.753 195.546 838.753V858.753V878.753C177.727 878.753 168.805 857.209 181.404 844.61L195.546 858.752ZM197.789 1088L204.334 1069.1C221.299 1074.97 223.555 1096.01 211.812 1106.54L198.462 1091.64L185.112 1076.75C175.788 1085.11 177.347 1102.08 191.243 1106.9L197.789 1088Z" fill="#7F072A" mask="url(#path-1-outside-1_17_2627)"/>
<path d="M291.517 754.794C266.822 786.935 243.695 813.828 226.746 832.681C218.273 842.106 211.346 849.518 206.544 854.568C204.143 857.093 202.272 859.028 201.006 860.328C200.373 860.978 199.891 861.47 199.568 861.797C199.407 861.961 199.285 862.083 199.205 862.164C199.165 862.204 199.136 862.234 199.116 862.254L199.089 862.281L197.318 864.06L197.686 866.542L202.632 865.81C197.77 866.529 197.687 866.542 197.686 866.544C197.686 866.546 197.686 866.548 197.687 866.552C197.687 866.558 197.689 866.568 197.691 866.581C197.695 866.608 197.701 866.648 197.709 866.7C197.725 866.805 197.748 866.963 197.778 867.17C197.84 867.584 197.93 868.199 198.049 869.001C198.286 870.605 198.634 872.957 199.077 875.952C199.963 881.943 201.228 890.503 202.746 900.783C205.783 921.343 209.831 948.78 213.88 976.289C217.929 1003.8 221.977 1031.38 225.013 1052.23C226.531 1062.65 227.795 1071.39 228.68 1077.59C228.974 1079.65 229.225 1081.43 229.43 1082.9C228.88 1083 228.313 1083.11 227.744 1083.23L209.684 1086.83L227.085 1092.85C228.214 1093.25 229.196 1093.6 230.021 1093.9V1099.13L233.796 1095.36L234.045 1095.46H634.941L635.896 1085.55C396.712 1039.04 333.536 823.602 299.965 755.626L296.409 748.426L291.517 754.794Z" fill="#B8224D" stroke="#7F072A" stroke-width="10"/>
<path d="M200.824 1164.84L200.713 1169.73C200.685 1170.93 199.966 1175.51 198.868 1180.73C198.341 1183.23 197.76 1185.72 197.195 1187.8C196.597 1190.01 196.113 1191.39 195.842 1191.93C147.981 1285.15 123.002 1379.82 176.702 1481.29L177.054 1481.95L179.061 1483.96H181.334L487.654 1486.85L490.152 1477.49C450.924 1455.43 427.449 1417.5 413.755 1384.61C406.928 1368.22 402.591 1353.21 399.963 1342.32C398.65 1336.87 397.766 1332.46 397.213 1329.43C396.936 1327.91 396.742 1326.74 396.618 1325.96C396.556 1325.56 396.513 1325.27 396.484 1325.08C396.47 1324.98 396.459 1324.91 396.453 1324.86L396.446 1324.81L396.22 1323.14L395.025 1321.94L239.306 1166.3L237.842 1164.84H200.824Z" fill="#B8224D" stroke="#7F072A" stroke-width="10"/>
<path d="M172.766 1473.96L176.728 1481.33C177.612 1482.97 178.09 1485.55 177.933 1489.1C177.778 1492.57 177.038 1496.51 175.971 1500.51L180.792 1501.8V1506.8H741.032L732.461 1498.26L709.541 1475.42L708.077 1473.96H172.766Z" fill="#B8224D" stroke="#7F072A" stroke-width="10"/>
<path d="M184.352 1138.64H739.753L731.217 1130.1L688.027 1086.91L686.562 1085.45H635.17L473.577 1068.37L473.37 1068.35L473.161 1068.34L473.052 1073.34C473.161 1068.34 473.16 1068.34 473.159 1068.34C473.158 1068.34 473.156 1068.34 473.154 1068.34C473.15 1068.34 473.143 1068.34 473.134 1068.34C473.116 1068.34 473.09 1068.34 473.055 1068.34C472.984 1068.34 472.88 1068.33 472.741 1068.33C472.464 1068.33 472.052 1068.32 471.512 1068.31C470.43 1068.28 468.831 1068.25 466.764 1068.21C462.629 1068.14 456.618 1068.03 449.107 1067.92C434.086 1067.69 413.062 1067.44 389.051 1067.33C341.051 1067.11 281.024 1067.46 233.133 1069.76L227.636 1070.02L228.423 1075.46C228.854 1078.44 229.202 1080.94 229.467 1082.89C228.362 1083.1 227.174 1083.34 226.009 1083.59C224.216 1083.96 222.451 1084.34 221.093 1084.65C220.417 1084.8 219.821 1084.94 219.366 1085.05C219.143 1085.11 218.922 1085.16 218.73 1085.22C218.637 1085.24 218.516 1085.28 218.389 1085.32C218.367 1085.32 218.234 1085.37 218.047 1085.44L217.139 1085.8C198.154 1093.46 184.712 1111.94 184.353 1133.55L184.352 1133.59V1138.64Z" fill="#B8224D" stroke="#7F072A" stroke-width="10"/>
<path d="M317.672 28.7739C302.972 22.6554 290.289 24.3546 281.247 31.3423C272.426 38.1593 267.93 49.3593 267.98 60.6519V60.6567C268.075 78.2448 258.533 102.949 242.716 131.425C227.03 159.665 205.649 190.802 183.059 220.993C137.88 281.369 88.2521 337.455 70.4346 358.448L65.043 364.786C59.4492 371.391 53.3525 378.737 47.71 386.261C40.2223 396.245 33.295 406.849 29.3896 416.744L38.0098 421.621C77.436 370.158 152.802 293.99 228.024 249.218C281.035 217.724 311.548 186.835 328.853 163.603C337.501 151.993 342.834 142.316 346.024 135.465C347.619 132.041 348.677 129.324 349.346 127.428C349.68 126.481 349.916 125.738 350.073 125.214C350.152 124.953 350.211 124.746 350.253 124.595C350.274 124.52 350.29 124.458 350.303 124.412C350.309 124.389 350.314 124.369 350.318 124.353C350.32 124.345 350.323 124.338 350.324 124.332C350.325 124.329 350.326 124.324 350.326 124.323C350.327 124.319 350.328 124.315 345.48 123.089L350.328 124.315L351.023 121.562L349.016 119.554L291.264 61.8013C290.983 55.445 293.632 50.8111 297.946 47.1362C302.854 42.9565 309.883 40.1025 317.022 38.2251L331.337 34.4614L317.672 28.7739Z" fill="#B8224D" stroke="#7F072A" stroke-width="10"/>
<path d="M556 1471H183C183 1471 199 1395.12 299.5 1299.5C400 1203.88 491 1203 491 1203L556 1471Z" fill="#7F072A"/>
<path d="M595.499 1089H222.499C222.499 1089 208.999 1047 424.499 967.5C594.688 904.716 625.171 854.717 630.465 836.467L631.499 829C631.499 829 631.875 831.608 630.465 836.467L595.499 1089Z" fill="#7F072A"/>
<path d="M333.5 1162L499.821 1002L538.5 1162H333.5Z" fill="#7F072A"/>
<path d="M233.5 1553L517.462 1392L583.5 1553H233.5Z" fill="#7F072A"/>
<rect x="436" y="954" width="318" height="548" fill="#7F072A"/>
<rect x="173" y="1479" width="657" height="108" fill="#7F072A"/>
</svg>
