<svg width="90" height="108" viewBox="0 0 90 108" fill="none" xmlns="http://www.w3.org/2000/svg">
<path d="M28.35 44.7689C27.2143 44.4479 26.0357 45.1113 25.7143 46.2455C25.3929 47.3797 26.0571 48.5567 27.1929 48.8777C31.4357 50.0761 34.2857 52.2375 34.2857 54.2491C34.2857 57.2879 27.8786 60.6691 19.2857 60.6691C10.6929 60.6691 4.28571 57.2879 4.28571 54.2491C4.28571 52.2375 7.13571 50.0761 11.3786 48.8777C12.5143 48.5567 13.1786 47.3797 12.8571 46.2455C12.5357 45.1113 11.3571 44.4479 10.2214 44.7689C3.81429 46.5665 0 50.1189 0 54.2491V97.0491C0 103.148 8.29286 107.749 19.2857 107.749C30.2786 107.749 38.5714 103.148 38.5714 97.0491V54.2491C38.5714 50.1189 34.7571 46.5665 28.35 44.7689ZM34.2857 97.0491C34.2857 100.088 27.8786 103.469 19.2857 103.469C10.6929 103.469 4.28571 100.088 4.28571 97.0491V93.2185C7.75714 95.5939 13.0929 97.0491 19.2857 97.0491C25.4786 97.0491 30.8143 95.5939 34.2857 93.2185V97.0491ZM34.2857 86.3491C34.2857 89.3879 27.8786 92.7691 19.2857 92.7691C10.6929 92.7691 4.28571 89.3879 4.28571 86.3491V82.5185C7.75714 84.8939 13.0929 86.3491 19.2857 86.3491C25.4786 86.3491 30.8143 84.8939 34.2857 82.5185V86.3491ZM34.2857 75.6491C34.2857 78.6879 27.8786 82.0691 19.2857 82.0691C10.6929 82.0691 4.28571 78.6879 4.28571 75.6491V71.8185C7.75714 74.1939 13.0929 75.6491 19.2857 75.6491C25.4786 75.6491 30.8143 74.1939 34.2857 71.8185V75.6491ZM34.2857 64.9491C34.2857 67.9879 27.8786 71.3691 19.2857 71.3691C10.6929 71.3691 4.28571 67.9879 4.28571 64.9491V61.1185C7.75714 63.4939 13.0929 64.9491 19.2857 64.9491C25.4786 64.9491 30.8143 63.4939 34.2857 61.1185V64.9491Z" fill="#7F072A"/>
<path d="M62.1431 64.9492C51.1503 64.9492 42.8574 69.5502 42.8574 75.6492V97.0492C42.8574 103.148 51.1503 107.749 62.1431 107.749C73.136 107.749 81.4289 103.148 81.4289 97.0492V75.6492C81.4289 69.5502 73.136 64.9492 62.1431 64.9492ZM77.1431 97.0492C77.1431 100.088 70.736 103.469 62.1431 103.469C53.5503 103.469 47.1431 100.088 47.1431 97.0492V93.2186C50.6146 95.594 55.9503 97.0492 62.1431 97.0492C68.336 97.0492 73.6717 95.594 77.1431 93.2186V97.0492ZM77.1431 86.3492C77.1431 89.388 70.736 92.7692 62.1431 92.7692C53.5503 92.7692 47.1431 89.388 47.1431 86.3492V82.5186C50.6146 84.894 55.9503 86.3492 62.1431 86.3492C68.336 86.3492 73.6717 84.894 77.1431 82.5186V86.3492ZM62.1431 82.0692C53.5503 82.0692 47.1431 78.688 47.1431 75.6492C47.1431 72.6104 53.5503 69.2292 62.1431 69.2292C70.736 69.2292 77.1431 72.6104 77.1431 75.6492C77.1431 78.688 70.736 82.0692 62.1431 82.0692Z" fill="#7F072A"/>
<path d="M62.1431 9.30908C51.5146 9.30908 42.8574 17.9547 42.8574 28.5691C42.8574 39.1835 51.5146 47.8291 62.1431 47.8291C72.7717 47.8291 81.4289 39.1835 81.4289 28.5691C81.4289 17.9547 72.7717 9.30908 62.1431 9.30908ZM62.1431 43.5491C53.8717 43.5491 47.1431 36.8295 47.1431 28.5691C47.1431 20.3087 53.8717 13.5891 62.1431 13.5891C70.4146 13.5891 77.1431 20.3087 77.1431 28.5691C77.1431 36.8295 70.4146 43.5491 62.1431 43.5491Z" fill="#7F072A"/>
<path d="M56.7854 24.2893C57.9689 24.2893 58.9283 23.3312 58.9283 22.1493C58.9283 20.9674 57.9689 20.0093 56.7854 20.0093C55.602 20.0093 54.6426 20.9674 54.6426 22.1493C54.6426 23.3312 55.602 24.2893 56.7854 24.2893Z" fill="#7F072A"/>
<path d="M67.5003 37.1291C68.6837 37.1291 69.6431 36.171 69.6431 34.9891C69.6431 33.8072 68.6837 32.8491 67.5003 32.8491C66.3168 32.8491 65.3574 33.8072 65.3574 34.9891C65.3574 36.171 66.3168 37.1291 67.5003 37.1291Z" fill="#7F072A"/>
<path d="M67.9714 20.4152C67.0071 19.7304 65.6785 19.9444 64.9928 20.9074L55.8 33.7474C55.1143 34.7104 55.3285 36.0372 56.2928 36.722C57.2571 37.4068 58.6071 37.1714 59.2714 36.2298L68.4643 23.3898C69.15 22.4268 68.9357 21.1 67.9714 20.4152Z" fill="#7F072A"/>
<path d="M62.1433 0.749023C46.779 0.749023 34.2861 13.2252 34.2861 28.569C34.2861 41.73 43.5218 53.0506 56.3361 55.7684L60.6218 60.0484C61.0504 60.4764 61.5861 60.669 62.1433 60.669C62.7004 60.669 63.2361 60.455 63.6647 60.0484L67.9504 55.7684C80.7647 53.0506 90.0004 41.73 90.0004 28.569C90.0004 13.2252 77.5076 0.749023 62.1433 0.749023ZM66.4933 51.681C66.0647 51.7666 65.679 51.9592 65.379 52.2802L62.1433 55.5116L58.9076 52.2802C58.6076 51.9806 58.2004 51.7666 57.7933 51.681C46.6504 49.6052 38.5718 39.8896 38.5718 28.569C38.5718 15.5792 49.1361 5.02902 62.1433 5.02902C75.1504 5.02902 85.7147 15.5792 85.7147 28.569C85.7147 39.8896 77.6361 49.6052 66.4933 51.681Z" fill="#7F072A"/>
<path d="M19.2854 47.8293C20.4689 47.8293 21.4283 46.8712 21.4283 45.6893C21.4283 44.5074 20.4689 43.5493 19.2854 43.5493C18.102 43.5493 17.1426 44.5074 17.1426 45.6893C17.1426 46.8712 18.102 47.8293 19.2854 47.8293Z" fill="#7F072A"/>
</svg>
