<svg width="643" height="1125" viewBox="0 0 643 1125" fill="none" xmlns="http://www.w3.org/2000/svg">
<g clip-path="url(#clip0_132_7)">
<rect width="643" height="1125" fill="#480316"/>
<g clip-path="url(#clip1_132_7)">
<path d="M690.997 -49H-148V1125H690.997V-49Z" fill="#480316"/>
<path d="M690.997 293.287V982.957C645.232 1041.21 588.125 1089.73 523.103 1125H19.8949C-45.1276 1089.71 -102.247 1041.2 -148 982.93V293.299C-49.405 167.771 101.872 87.4302 271.497 87.4302C358.172 87.4302 440.054 108.407 512.56 145.683C512.56 145.683 512.573 145.683 512.615 145.696C581.982 181.348 642.782 231.919 690.997 293.284V293.287Z" fill="#CBBC9D"/>
<path d="M690.997 651.073C690.997 705.729 680.537 757.936 661.51 805.801C602.97 817.581 539.665 782.915 582.821 671.183C653.392 488.482 459.461 276.134 459.461 276.134C459.461 276.134 459.473 276.134 459.501 276.146C596.785 345.044 690.997 487.059 690.997 651.07V651.073Z" fill="#480316"/>
<path d="M690.997 651.072C690.997 705.729 680.537 757.935 661.51 805.801C599.911 960.787 448.499 1070.36 271.497 1070.36C39.8136 1070.36 -148 882.64 -148 651.072C-148 419.504 39.8136 231.787 271.497 231.787C339.077 231.787 402.923 247.759 459.461 276.136C459.461 276.136 459.473 276.136 459.501 276.149C596.785 345.046 690.997 487.062 690.997 651.072Z" fill="#CBBC9D"/>
<path d="M-137.768 749.375L-20.6199 768.215L-147.998 788.693V718.644L-71.4193 706.335L29.2332 722.513L-137.768 749.375Z" fill="#7F072A"/>
<path d="M272.39 761.621L105.369 788.47L-20.6211 768.217L146.385 741.353L272.39 761.621Z" fill="#7F072A"/>
<path d="M690.997 828.917V1125H-148V819.111L-116.62 824.155H-116.605L105.363 788.475L206.11 804.665L271.512 815.175L336.845 804.678L438.526 788.326L659.617 823.87H659.63L690.997 828.917Z" fill="#7F072A"/>
<path d="M427.606 1016.09L270.619 990.853L108.529 1016.92L-148 1058.16V1125H690.997V1058.46L427.606 1016.1V1016.09ZM-116.605 824.155H-116.617L-147.998 819.111V882.613L49.5196 850.869L-116.602 824.157L-116.605 824.155Z" fill="#7F072A"/>
<path d="M271.51 815.18L49.5123 850.864L-116.617 824.155L105.368 788.471L271.51 815.18Z" fill="#7F072A"/>
<path d="M564.52 768.063L438.531 788.333L272.389 761.621L398.391 741.353L564.52 768.063Z" fill="#7F072A"/>
<path d="M690.997 818.826V1125H-148V829.201L-116.62 824.155H-116.605L105.363 788.475L206.11 804.665L271.512 815.175L336.845 804.678L438.526 788.326L659.617 823.87H659.63L690.997 818.826Z" fill="#7F072A"/>
<path d="M616.194 706.335L691 718.375V788.408L564.513 768.065L680.093 749.494L513.971 722.782L616.194 706.335Z" fill="#7F072A"/>
<path d="M146.379 741.354L-20.6218 768.215L105.363 788.476L272.391 761.629L146.379 741.354ZM29.2313 722.513L-71.4213 706.336L-148 718.645V788.693L-20.6218 768.215L-137.77 749.375L29.2313 722.513ZM155.256 702.265H155.244L29.2313 722.513L146.379 741.354L272.391 721.093L155.256 702.265ZM659.63 823.87H659.617L438.528 788.326L336.847 804.678L271.512 815.173L206.11 804.663L105.363 788.473L-116.605 824.153H-116.617L-147.998 819.109V1125H691V818.824L659.632 823.868L659.63 823.87Z" fill="#7F072A"/>
<path d="M387.944 702.509L272.391 721.093L398.391 741.353L513.971 722.782L387.946 702.507L387.944 702.509ZM146.379 741.353L-20.6218 768.215L105.363 788.475L272.391 761.629L146.379 741.353ZM155.256 702.265H155.244L29.2313 722.513L146.379 741.353L272.391 721.093L155.256 702.265ZM146.379 741.353L-20.6218 768.215L105.363 788.475L272.391 761.629L146.379 741.353ZM146.379 741.353L-20.6218 768.215L105.363 788.475L272.391 761.629L146.379 741.353ZM155.256 702.265H155.244L29.2313 722.513L146.379 741.353L272.391 721.093L155.256 702.265ZM146.379 741.353L-20.6218 768.215L105.363 788.475L272.391 761.629L146.379 741.353ZM659.63 823.87H659.617L438.528 788.326L336.847 804.678L271.512 815.172L206.11 804.663L105.363 788.473L-116.605 824.152H-116.617L-148 1125H690.997V818.826L659.63 823.87ZM155.256 702.265H155.244L29.2313 722.513L146.379 741.353L272.391 721.093L155.256 702.265ZM146.379 741.353L-20.6218 768.215L105.363 788.475L272.391 761.629L146.379 741.353ZM155.256 702.265H155.244L29.2313 722.513L146.379 741.353L272.391 721.093L155.256 702.265ZM146.379 741.353L-20.6218 768.215L105.363 788.475L272.391 761.629L146.379 741.353ZM170.143 667.504L54.591 686.087L155.244 702.265H155.256L270.808 683.694L170.143 667.504ZM146.379 741.353L-20.6218 768.215L105.363 788.475L272.391 761.629L146.379 741.353ZM146.379 741.353L-20.6218 768.215L105.363 788.475L272.391 761.629L146.379 741.353Z" fill="#7F072A"/>
<path d="M490.182 686.09L387.946 702.509L270.811 683.694L373.061 667.247L490.182 686.09Z" fill="#7F072A"/>
<path d="M438.531 788.333L659.625 823.875L492.604 850.725L271.51 815.18L438.531 788.333Z" fill="#7F072A"/>
<path d="M690.997 1058.46V1125H-148V1058.16L108.529 1016.92L270.619 990.855L427.606 1016.09L690.997 1058.46Z" fill="#7F072A"/>
<path d="M691 685.723V694.311L616.194 706.335L490.182 686.09L582.824 671.183L691 685.723Z" fill="#7F072A"/>
<path d="M54.578 686.09L-71.4193 706.336L-147.998 694.029V670.047H-45.1531H-45.1132L54.578 686.09Z" fill="#7F072A"/>
<path d="M438.53 788.334L271.509 815.18L105.367 788.471L272.388 761.622L438.53 788.334Z" fill="#CBBC9D"/>
<path d="M691 653.791V685.724L633.042 677.934L582.824 671.183L691 653.791Z" fill="#CBBC9D"/>
<path d="M146.385 741.354L-20.6211 768.218L-137.771 749.38L29.2345 722.519L146.385 741.354Z" fill="#CBBC9D"/>
<path d="M105.365 788.476L-116.603 824.155H-116.618L-147.998 819.111V788.693L-20.6199 768.215L105.365 788.476Z" fill="#CBBC9D"/>
<path d="M398.392 741.354L272.39 761.622L146.385 741.354L272.39 721.098L398.392 741.354Z" fill="#CBBC9D"/>
<path d="M564.512 768.066L690.999 788.409V818.827L659.619 823.871L438.527 788.326L564.512 768.066Z" fill="#CBBC9D"/>
<path d="M492.602 850.72L365.399 871.182L270.619 886.426L175.555 871.142L49.5176 850.867L195.678 827.375V827.362L346.536 827.24L492.602 850.72Z" fill="#CBBC9D"/>
<path d="M49.519 850.867L-147.998 882.613V829.202L-116.618 824.155H-116.603L49.519 850.867Z" fill="#CBBC9D"/>
<path d="M595.405 938.635L407.334 968.876L270.617 990.856L233.594 938.64L130.844 968.377L-54.168 938.635L160.371 904.144L379.445 903.915L595.405 938.635Z" fill="#CBBC9D"/>
<path d="M691 818.827V882.613L492.604 850.72L659.619 823.871L691 818.827Z" fill="#CBBC9D"/>
<path d="M690.997 1058.46V1060.81L461.803 1095.74L72.6145 1095.03L-148 1061.5V1058.16L108.529 1016.92L427.606 1016.1L690.997 1058.46Z" fill="#CBBC9D"/>
<path d="M690.999 923.269V953.999L595.408 938.635L690.999 923.269Z" fill="#CBBC9D"/>
<path d="M616.193 706.336L690.999 694.312V718.376L616.193 706.336Z" fill="#CBBC9D"/>
<path d="M323.99 780.402C321.243 781.133 317.942 781.443 314.045 781.458C283.596 781.485 253.15 781.241 222.701 781.715C215.19 781.822 211.389 778.982 209.075 772.396C207.571 768.068 209.819 757.139 213.839 743.275C213.812 743.275 213.799 743.263 213.772 743.263C211.404 742.816 209.617 740.747 209.617 738.244C209.617 737.298 214.029 724.028 219.969 706.338C225.692 689.242 232.839 668.034 238.767 649.869C238.779 649.842 238.779 649.83 238.779 649.83C242.472 638.521 245.694 628.406 247.806 621.168H246.44C240.527 621.168 235.668 616.706 235.034 610.956H234.235C231.366 610.956 229.038 608.63 229.038 605.762V601.569C229.038 593.643 235.466 587.219 243.396 587.219H244.642C244.845 583.824 245.089 580.415 245.306 576.994C245.619 571.975 245.876 566.931 245.928 561.887C245.941 559.127 244.318 556.084 242.747 553.623C236.482 543.778 229.635 534.296 223.557 524.341C213.002 507.055 220.958 492.597 241.054 491.245C242.273 491.162 245.059 491.068 247.684 490.975V487.459C247.684 483.902 250.58 481.007 254.138 481.007H262.813C263.545 479.642 264.234 478.329 264.898 477.059C266.399 474.246 267.78 471.636 269.148 469.037C267.902 468.361 266.861 467.36 266.129 466.157C262.896 467.632 259.607 469.132 255.737 470.892C254.086 471.651 252.203 470.445 252.203 468.633V455.271C252.203 453.444 254.099 452.241 255.749 453C259.525 454.744 262.908 456.299 266.237 457.842C267.036 456.571 268.199 455.555 269.565 454.919C267.86 451.809 266.127 448.657 264.029 444.829C263.11 443.164 264.314 441.123 266.209 441.123H279.091C280.947 441.123 282.15 443.057 281.339 444.721C279.538 448.415 277.943 451.715 276.359 454.974C277.768 455.65 278.931 456.746 279.715 458.084C282.909 456.489 286.143 454.864 289.986 452.945C291.651 452.119 293.599 453.324 293.599 455.176V469.12C293.599 471.014 291.584 472.217 289.918 471.324C286.238 469.35 283.004 467.617 279.823 465.913C279.079 467.253 277.97 468.334 276.617 469.065C278.267 472.636 279.973 476.343 282.138 481.007H290.258C292.113 481.007 293.776 481.791 294.94 483.036C296.049 484.187 296.713 485.742 296.713 487.459V491.22C297.334 491.192 297.931 491.18 298.526 491.165H298.566C323.019 490.963 331.651 507.909 319.458 525.139C316.791 528.901 314.412 532.849 311.852 536.677C305.694 545.929 301.934 551.582 299.849 556.748C296.683 564.497 297.304 571.154 299.172 587.221C299.185 587.249 299.185 587.276 299.185 587.301C299.185 587.301 299.215 587.92 299.322 587.935C299.444 587.947 308.648 610.923 305.792 610.936C305.355 618.825 292.82 621.166 292.82 621.166C294.375 625.818 299.969 640.543 300.119 640.99C306.466 659.98 316.219 683.941 322.769 703.89C327.518 718.32 331.349 730.183 332.905 735.404C333.392 737.041 333.649 738.014 333.649 738.244C333.649 740.625 332.026 742.599 329.833 743.181C329.833 743.181 329.848 743.22 329.873 743.288C332.051 750.456 329.074 779.062 323.988 780.402H323.99Z" fill="#7F072A"/>
<path d="M322.219 780.51C288.427 780.395 254.635 780.367 220.842 780.455C210.934 780.48 209.341 785.658 209.621 797.049H333.576C333.99 786.215 331.925 780.542 322.219 780.51Z" fill="#7F072A"/>
<path d="M690.996 106.852V299.454C647.95 276.338 605.034 251.084 562.015 227.928C537.264 214.606 503.996 247.078 449.204 333.708C448.88 334.222 448.445 335.066 447.931 336.027C447.903 336.082 447.876 336.121 447.876 336.149H447.863C437.471 355.626 391.029 460.04 353.721 533.375C348.821 543.019 332.773 563.402 326.698 552.216C320.161 540.219 316.697 529.262 315.411 518.443V518.431C313.151 499.413 317.616 480.763 324.046 457.472C332.598 426.5 342.789 396.296 353.371 365.933C354.872 361.618 355.049 329.969 319.147 319.487C314.303 318.067 300.554 323.625 294.788 329.887C267.536 359.522 211.945 402.004 215.72 435.183C217.453 450.494 218.846 480.618 225.803 495.293C234.248 513.132 229.466 538.948 229.466 538.988C227.801 548.592 208.878 565.191 202.573 553.461C175.68 503.426 166.242 469.142 159.133 415.347C156.236 393.431 185.651 358.925 191.726 344.385C170.696 367.703 148.098 390.249 131.845 416.704C113.047 447.325 94.1974 478.866 88.3794 515.805C87.0535 524.286 83.8723 533.984 78.189 539.894C69.2846 549.131 58.1754 556.963 46.6591 562.671C41.4903 565.241 30.5558 563.549 26.8752 559.546C23.4917 555.867 25.0623 546.129 26.7403 539.65C30.4884 525.192 36.1317 511.221 40.1519 496.815C48.5019 466.924 56.2427 436.87 64.3206 406.913C67.3519 395.675 72.5358 385.043 73.0077 372.924C55.998 401.503 35.7946 428.364 19.7861 457.54C10.8543 473.837 1.50293 488.405 -17.8615 491.082C-25.6422 492.151 -36.2646 490.541 -41.4758 485.714C-44.5347 482.874 -41.2062 470.43 -37.8352 463.804C-17.5094 423.822 3.66785 384.274 25.7116 342.401C15.2116 345.336 6.87403 349.474 -1.52845 349.584C-12.8949 349.718 -25.5473 349.287 -35.3856 344.457C-46.9418 338.789 -44.6146 327.564 -32.2044 323.248C-22.4335 319.867 -12.0959 318.082 -2.41989 314.483C62.263 290.394 117.38 245.558 185.042 227.826C186.517 227.434 187.923 226.623 189.209 225.784C214.284 209.392 238.995 192.404 264.474 176.688C272.472 171.751 280.455 166.775 288.453 161.811C289.103 161.404 291.268 160.066 291.632 159.822C318.238 143.32 344.964 126.995 372.73 112.74C395.993 100.782 423.138 96.617 447.252 86.04C467.17 77.3024 643.618 96.1977 690.994 106.855L690.996 106.852Z" fill="#7F072A"/>
<path d="M690.997 273.091V306.297C647.951 283.182 604.92 260.041 561.901 236.886C537.15 223.563 503.997 247.166 449.205 333.795C448.88 334.31 448.446 335.066 447.932 336.027C449.717 332.523 488.406 257.485 521.142 227.202C554.647 196.187 607.194 238.78 653.122 259.04C668.644 265.884 681.189 270.279 690.999 273.094L690.997 273.091Z" fill="#CBBC9D"/>
<path d="M68.1631 380.897C68.1631 380.897 78.758 346.289 93.2382 338.432C111.292 328.636 133.068 318.199 133.068 318.199C133.068 318.199 99.1437 337.192 90.042 350.839C80.9404 364.485 52.9013 449.778 53.4132 447.846C53.9251 445.914 68.1631 380.897 68.1631 380.897Z" fill="#CBBC9D"/>
<path d="M288.455 161.806C249.739 186.219 199.057 231.786 184.784 234.02C152.055 239.144 54.4566 295.423 22.1951 311.139C-10.0789 326.855 -32.2051 323.243 -32.2051 323.243C-22.4342 319.861 -12.0965 318.077 -2.42058 314.478C62.2623 290.389 117.379 245.553 185.041 227.821C186.517 227.429 187.923 226.618 189.209 225.779C214.284 209.387 238.994 192.399 264.474 176.683C272.472 171.746 280.455 166.77 288.453 161.806H288.455Z" fill="#CBBC9D"/>
<path d="M276.356 454.967L274.094 459.981L278.671 454.967H276.356Z" fill="#CBBC9D"/>
<path d="M427.607 1016.09L270.619 990.856L407.336 968.876L427.607 1016.09Z" fill="#480316"/>
<path d="M379.447 903.914L270.619 886.427L271.059 856.832L365.399 871.183L379.447 903.914Z" fill="#480316"/>
<path d="M270.619 886.427L160.373 904.144L175.555 871.143L270.619 886.427Z" fill="#480316"/>
<path d="M336.844 804.678L271.511 815.175L206.109 804.665L209.615 797.051H333.57L336.844 804.678Z" fill="#7F072A"/>
<path d="M271.512 815.175L195.678 827.362L206.11 804.666L271.512 815.175Z" fill="#480316"/>
<path d="M346.535 827.24L271.512 815.175L336.844 804.678L346.535 827.24Z" fill="#480316"/>
<path d="M365.398 871.182L270.618 886.426L178.812 869.999L177.279 867.389L195.677 827.374V827.362L271.512 815.175L346.535 827.24L365.398 871.182Z" fill="#7F072A"/>
<path d="M270.619 990.856L108.529 1016.92L130.845 968.377L270.619 990.856Z" fill="#480316"/>
<path d="M404.53 968.01L270.619 990.856L130.846 968.377L160.373 904.144L270.619 886.426L379.447 903.914L406.193 966.215L404.53 968.01Z" fill="#7F072A"/>
<path d="M269.901 1125H58.8398L71.7495 1096.93L72.6134 1095.03L269.901 1125Z" fill="#480316"/>
<path d="M474.361 1125H269.902L461.804 1095.75L462.588 1097.58L474.361 1125Z" fill="#480316"/>
<path d="M461.804 1095.74L269.903 1125L72.6152 1095.03L108.53 1016.92L270.619 990.856L427.607 1016.09V1016.11L461.804 1095.74Z" fill="#7F072A"/>
<path d="M175.557 871.137L270.618 886.426L177.28 867.389L175.557 871.137Z" fill="#CBBC9D"/>
<path d="M270.619 990.856L406.193 966.215L407.336 968.873L270.619 990.856Z" fill="#CBBC9D"/>
<path d="M304.043 611.415L244.637 587.219L299.184 587.299C299.184 587.299 299.252 587.311 299.361 587.326C299.484 587.339 299.659 587.354 299.888 587.381C306.775 588.449 312.041 594.402 312.041 601.569V605.762C312.041 608.615 309.727 610.943 306.873 610.956C306.251 616.704 301.379 621.168 295.464 621.168H295.261C296.817 625.82 298.835 631.825 301.107 638.644C301.134 638.684 301.147 638.724 301.147 638.766C301.297 639.198 301.444 639.644 301.594 640.091C307.941 659.081 316.221 683.941 322.771 703.89L294.732 634.506L257.179 619.938H289.453C303.729 619.938 304.041 611.418 304.041 611.418L304.043 611.415Z" fill="#480316"/>
<path d="M333.963 770.691C333.883 771.003 333.801 771.3 333.706 771.584C332.258 776.331 329.079 779.064 323.99 780.402H297.831C320.796 780.402 324.043 769.932 324.043 769.932L244.635 743.368L329.876 743.285C332.053 750.453 334.368 758.649 334.53 760.855C334.8 764.779 334.625 768.023 333.961 770.688L333.963 770.691Z" fill="#480316"/>
<path d="M294.938 483.033C296.046 484.184 296.71 485.739 296.71 487.456V490.755L254.139 481.004H290.256C292.111 481.004 293.774 481.788 294.938 483.033Z" fill="#480316"/>
<path d="M298.564 491.162V491.175L298.523 491.162H298.564Z" fill="#CBBC9D"/>
</g>
</g>
<defs>
<clipPath id="clip0_132_7">
<rect width="643" height="1125" fill="white"/>
</clipPath>
<clipPath id="clip1_132_7">
<rect width="839" height="1174" fill="white" transform="translate(-148 -49)"/>
</clipPath>
</defs>
</svg>
