<svg width="82" height="97" viewBox="0 0 82 97" fill="none" xmlns="http://www.w3.org/2000/svg">
<g clip-path="url(#clip0_124_4762)">
<path d="M64.4287 58.2004C65.5025 58.2004 66.3811 57.3274 66.3811 56.2604C66.3811 55.1934 65.5025 54.3204 64.4287 54.3204V40.7404C64.4287 39.6734 63.5501 38.8004 62.4763 38.8004C61.4025 38.8004 60.5239 39.6734 60.5239 40.7404V54.3204H57.0096V46.5604C57.0096 45.4934 56.1311 44.6204 55.0572 44.6204C53.9834 44.6204 53.1049 45.4934 53.1049 46.5604V54.3204H49.5906V42.6804C49.5906 41.6134 48.712 40.7404 47.6382 40.7404C46.5644 40.7404 45.6858 41.6134 45.6858 42.6804V54.3204H42.1715V46.5604C42.1715 45.4934 41.293 44.6204 40.2191 44.6204C39.1453 44.6204 38.2668 45.4934 38.2668 46.5604V54.3204H34.7525V40.7404C34.7525 39.6734 33.8739 38.8004 32.8001 38.8004C31.7263 38.8004 30.8477 39.6734 30.8477 40.7404V54.3204H23.4287V50.3628C25.6349 50.0136 27.3334 48.1124 27.3334 45.8232C27.3334 43.7668 26.0058 42.0014 24.0339 41.4L20.051 40.2166C19.7387 40.1196 19.5239 39.8286 19.5239 39.5182C19.5239 39.1108 19.8558 38.781 20.2658 38.781H25.381C26.4549 38.781 27.3334 37.908 27.3334 36.841C27.3334 35.774 26.4549 34.901 25.381 34.901H23.4287V32.961C23.4287 31.894 22.5501 31.021 21.4763 31.021C20.4025 31.021 19.5239 31.894 19.5239 32.961V34.9786C17.3177 35.3278 15.6191 37.229 15.6191 39.5182C15.6191 41.5746 16.9468 43.34 18.9187 43.9414L22.9015 45.1248C23.2139 45.2218 23.4287 45.5128 23.4287 45.8232C23.4287 46.2306 23.0968 46.5604 22.6868 46.5604H17.5715C16.4977 46.5604 15.6191 47.4334 15.6191 48.5004C15.6191 49.5674 16.4977 50.4404 17.5715 50.4404H19.5239V54.3204H17.5715C16.4977 54.3204 15.6191 55.1934 15.6191 56.2604C15.6191 57.3274 16.4977 58.2004 17.5715 58.2004H64.4287Z" fill="#7F072A"/>
<path d="M17.5715 65.9606C18.6498 65.9606 19.5239 65.092 19.5239 64.0206C19.5239 62.9491 18.6498 62.0806 17.5715 62.0806C16.4933 62.0806 15.6191 62.9491 15.6191 64.0206C15.6191 65.092 16.4933 65.9606 17.5715 65.9606Z" fill="#7F072A"/>
<path d="M17.5715 73.7198C18.6498 73.7198 19.5239 72.8513 19.5239 71.7798C19.5239 70.7084 18.6498 69.8398 17.5715 69.8398C16.4933 69.8398 15.6191 70.7084 15.6191 71.7798C15.6191 72.8513 16.4933 73.7198 17.5715 73.7198Z" fill="#7F072A"/>
<path d="M17.5715 81.4801C18.6498 81.4801 19.5239 80.6115 19.5239 79.5401C19.5239 78.4687 18.6498 77.6001 17.5715 77.6001C16.4933 77.6001 15.6191 78.4687 15.6191 79.5401C15.6191 80.6115 16.4933 81.4801 17.5715 81.4801Z" fill="#7F072A"/>
<path d="M64.4287 62.0806H25.3811C24.3073 62.0806 23.4287 62.9536 23.4287 64.0206C23.4287 65.0876 24.3073 65.9606 25.3811 65.9606H64.4287C65.5025 65.9606 66.3811 65.0876 66.3811 64.0206C66.3811 62.9536 65.5025 62.0806 64.4287 62.0806Z" fill="#7F072A"/>
<path d="M25.3811 69.8398C24.3073 69.8398 23.4287 70.7128 23.4287 71.7798C23.4287 72.8468 24.3073 73.7198 25.3811 73.7198H42.9525C44.0263 73.7198 44.9049 72.8468 44.9049 71.7798C44.9049 70.7128 44.0263 69.8398 42.9525 69.8398H25.3811Z" fill="#7F072A"/>
<path d="M54.6668 79.5401C54.6668 78.4731 53.7882 77.6001 52.7144 77.6001H25.3811C24.3073 77.6001 23.4287 78.4731 23.4287 79.5401C23.4287 80.6071 24.3073 81.4801 25.3811 81.4801H52.7144C53.7882 81.4801 54.6668 80.6071 54.6668 79.5401Z" fill="#7F072A"/>
<path d="M72.2381 0H9.7619C4.37333 0 0 4.3456 0 9.7V87.3C0 92.6544 4.37333 97 9.7619 97H72.2381C77.6267 97 82 92.6544 82 87.3V9.7C82 4.3456 77.6267 0 72.2381 0ZM56.619 9.7C56.619 10.767 55.7405 11.64 54.6667 11.64H27.3333C26.2595 11.64 25.381 10.767 25.381 9.7V3.88H56.619V9.7ZM29.2857 15.52H52.7143V17.46C52.7143 18.527 51.8357 19.4 50.7619 19.4H44.9048C43.831 19.4 42.9524 20.273 42.9524 21.34C42.9524 22.407 42.0738 23.28 41 23.28C39.9262 23.28 39.0476 22.407 39.0476 21.34C39.0476 20.273 38.169 19.4 37.0952 19.4H31.2381C30.1643 19.4 29.2857 18.527 29.2857 17.46V15.52ZM78.0952 87.3C78.0952 90.501 75.4595 93.12 72.2381 93.12H9.7619C6.54048 93.12 3.90476 90.501 3.90476 87.3V9.7C3.90476 6.499 6.54048 3.88 9.7619 3.88H21.4762V7.76H9.7619C8.68809 7.76 7.80952 8.633 7.80952 9.7V87.3C7.80952 88.367 8.68809 89.24 9.7619 89.24H33.1905C34.2643 89.24 35.1429 88.367 35.1429 87.3C35.1429 86.233 34.2643 85.36 33.1905 85.36H11.7143V11.64H21.8276C22.4133 13.289 23.7214 14.5694 25.381 15.1708V17.46C25.381 20.661 28.0167 23.28 31.2381 23.28H35.4748C36.2752 25.5304 38.4424 27.16 41 27.16C43.5576 27.16 45.7248 25.5304 46.5252 23.28H50.7619C53.9833 23.28 56.619 20.661 56.619 17.46V15.1708C58.2786 14.5888 59.5671 13.289 60.1724 11.64H70.2857V85.36H48.8095C47.7357 85.36 46.8571 86.233 46.8571 87.3C46.8571 88.367 47.7357 89.24 48.8095 89.24H72.2381C73.3119 89.24 74.1905 88.367 74.1905 87.3V9.7C74.1905 8.633 73.3119 7.76 72.2381 7.76H60.5238V3.88H72.2381C75.4595 3.88 78.0952 6.499 78.0952 9.7V87.3Z" fill="#7F072A"/>
<path d="M41.0002 89.2399C42.0785 89.2399 42.9526 88.3713 42.9526 87.2999C42.9526 86.2284 42.0785 85.3599 41.0002 85.3599C39.922 85.3599 39.0479 86.2284 39.0479 87.2999C39.0479 88.3713 39.922 89.2399 41.0002 89.2399Z" fill="#7F072A"/>
</g>
<defs>
<clipPath id="clip0_124_4762">
<rect width="82" height="97" fill="white"/>
</clipPath>
</defs>
</svg>
