<svg width="32" height="32" viewBox="0 0 32 32" fill="none" xmlns="http://www.w3.org/2000/svg">
<rect width="32" height="32" rx="4" fill="#CBBC9D"/>
<path d="M15.7027 3.2002C15.9495 3.2423 16.9251 3.20775 17.2199 3.20173C17.204 3.36081 17.2138 3.51886 17.2148 3.67205C17.25 9.2153 21.6583 14.2544 27.1139 15.0975C27.9212 15.2223 28.3782 15.3394 29.2252 15.3136C29.1996 15.8339 29.1797 16.271 29.2309 16.7883C23.3936 16.5953 18.0284 21.2808 17.315 27.0562C17.2535 27.5542 17.1829 28.2709 17.2159 28.7696C17.0411 28.7989 15.9745 28.7905 15.7095 28.8002C15.6896 28.2782 15.6474 27.8185 15.596 27.3079C15.1039 22.4238 11.3192 18.2483 6.57881 17.0976C5.52619 16.8421 4.72154 16.7863 3.64875 16.7616C3.61455 16.3774 3.63907 15.736 3.64363 15.3355C7.00214 15.2168 9.83764 14.1281 12.2319 11.7188C14.5343 9.40187 15.6989 6.46593 15.7027 3.2002Z" fill="#7F072A"/>
</svg>
