<svg width="665" height="675" viewBox="0 0 665 675" fill="none" xmlns="http://www.w3.org/2000/svg">
<path d="M517.057 140.83C544.736 157.661 576.081 157.661 595.209 137.929C609.335 123.388 664.122 67.8197 664.122 67.8197L653.737 57.4769C653.737 57.4769 637.015 70.4531 628.654 74.6131C608.342 84.765 600.592 77.59 581.159 65.3389C550.463 46.0273 479.031 0 479.031 0C479.031 0 293.787 108.389 283.058 114.954C272.292 121.518 221.361 151.974 221.361 234.373C221.361 238.571 221.438 260.898 221.361 260.898C157.641 260.898 123.585 311.085 118.202 370.432C120.76 371.424 122.822 371.997 126.296 373.409C143.171 348.449 164.207 341.579 221.399 340.968L221.476 551.068C204.906 547.443 187.038 544.847 167.834 544.084C62.6134 539.962 24.4345 600.836 0 625.529C5.65048 631.177 10.2319 635.49 10.2319 635.49C10.2319 635.49 42.264 594.996 94.8364 594.996C173.714 594.996 249.27 674.8 249.27 674.8C249.27 674.8 413.019 571.181 424.167 557.251C437.034 541.183 440.241 522.024 440.241 479.012C440.241 442.106 440.241 340.968 440.241 340.968C461.277 340.968 492.393 340.968 511.292 340.968C541.949 340.968 566.537 350.662 566.537 350.662L585.931 260.898H440.203V91.2531C468.455 109.725 504.381 133.082 517.057 140.792V140.83ZM340.441 605.454C330.209 597.515 301.117 577.631 271.376 566.792C277.408 557.48 295.963 529.161 295.963 500.118C295.963 471.074 295.963 146.44 295.963 146.44L344.297 118.083C342.007 128.312 340.365 143.043 340.365 152.47C340.365 161.897 340.479 605.492 340.479 605.492L340.441 605.454Z" fill="#7F072A"/>
</svg>
