<svg width="452" height="131" viewBox="0 0 452 131" fill="none" xmlns="http://www.w3.org/2000/svg">
<g clip-path="url(#clip0_184_999)">
<path d="M95.1364 16.4707C95.5263 16.9196 95.514 17.5919 95.5149 18.1873C95.5296 26.3774 95.5107 34.591 95.5173 42.7786L95.5288 60.2664C95.5303 66.0483 96.2336 73.5827 94.4677 79.0998C93.035 83.5761 87.5478 90.0723 84.3227 93.4713C82.3918 95.5065 80.4386 97.7049 78.3279 99.5511C73.1068 104.118 53.9219 118.889 47.7309 118.993C45.8271 119.024 43.6019 117.882 41.9055 117.084C30.9006 111.907 20.3952 103.139 11.7266 94.6641C18.6857 96.0711 20.4855 97.0096 26.7914 100.597C29.9567 102.745 31.6647 104.355 34.3501 106.968C41.0434 101.809 49.5387 97.9567 56.2201 92.4604C59.6528 89.6365 62.3316 89.5949 63.0719 84.2487C63.6136 80.3377 63.4242 76.8251 63.4184 72.9541C63.394 67.2073 63.4021 61.4604 63.4429 55.7138C70.3815 55.6757 76.027 55.1672 82.746 57.1215C83.8372 52.8734 84.7657 48.1734 85.7151 43.8616C78.7178 43.7418 70.3027 43.6486 63.3951 43.9262C63.3574 35.1118 63.3827 26.2972 63.4709 17.4833C65.8073 19.2285 68.5085 20.8768 70.9906 22.413C76.5107 25.8418 82.4409 29.7114 88.0819 23.9071C90.0488 21.8833 93.7331 18.7703 95.1364 16.4707Z" fill="#7B0C29"/>
<path d="M174.552 22.9318C186.42 21.3695 197.323 29.6809 198.962 41.5394C200.601 53.3978 192.361 64.3557 180.515 66.0717C168.56 67.8033 157.481 59.4702 155.827 47.5026C154.173 35.5352 162.576 24.5088 174.552 22.9318ZM179.848 57.586C182.832 56.7407 186.111 55.1732 187.417 52.2539C192.158 41.6553 187.72 30.1737 174.962 31.3442C166.765 33.8929 163.932 42.0305 166.373 49.7649C167.277 52.7069 169.33 55.1587 172.068 56.5638C174.335 57.7369 177.352 58.0332 179.848 57.586Z" fill="#7B0C29"/>
<path d="M255.961 23.6189C260.82 23.3372 266.433 23.5167 271.319 23.5178C276.744 23.5189 282.777 24.9981 286.579 29.1054C291.014 33.8933 291.703 39.6038 291.547 45.8245C291.392 51.9873 289.822 56.528 285.234 60.855C278.909 65.7086 274.726 65.4949 266.94 65.4823L255.941 65.4702C257.622 60.2096 257.362 51.5137 257.276 45.7966C257.177 39.2897 257.915 29.6229 255.961 23.6189ZM266.037 57.285C271.407 57.3269 275.163 57.8858 279.401 54.1503C283.619 48.8037 283.7 38.5699 278.357 33.9006C275.517 31.4195 269.653 31.6541 266.026 31.6486C266.074 40.1178 266.134 48.8152 266.037 57.285Z" fill="#7B0C29"/>
<path d="M431.886 23.6065C434.897 23.4517 438.113 23.5272 441.142 23.5455C439.307 30.167 440.043 39.392 439.928 46.3981C439.836 52.1034 439.598 60.2179 441.219 65.5472C437.441 65.4126 433.492 65.4569 429.696 65.4516C431.615 61.3368 431.073 54.8387 431.049 50.1191C431.018 46.3021 431.256 42.7717 431.267 39.0331C429.122 41.881 421.705 55.8197 419.96 56.8397C418.399 56.2407 409.737 41.065 408.665 38.7042C408.746 43.0304 408.773 47.3574 408.744 51.6841C408.729 57.3792 408.541 60.0546 409.993 65.6235C406.984 65.3624 401.863 65.4338 398.75 65.4679C399.259 63.7425 399.581 61.9675 399.71 60.1734C400.413 51.4949 399.488 41.7206 399.851 32.9391C399.964 30.1919 399.609 26.2035 398.611 23.6228C401.136 23.4902 405.268 22.9644 407.61 23.8246C408.993 24.3327 418.725 40.4257 419.687 42.5693C423.496 37.4126 428.302 29.1758 431.886 23.6065Z" fill="#7B0C29"/>
<path d="M213.255 23.4663C219.994 23.8481 226.751 22.9733 233.485 23.9871C244.616 25.6632 246.909 38.4375 239.939 45.9431C238.972 46.9825 237.728 47.7494 236.549 48.5282C238.706 53.2781 241.937 62.1789 245.153 65.5881C242.175 65.337 236.205 65.4015 233.219 65.646C233.298 64.6833 233.428 63.8854 233.159 62.9557C232.595 59.9598 229.522 52.0486 228.436 48.5244C225.685 48.3817 222.789 48.4588 220.025 48.4874C220.219 54.9956 219.48 59.1682 221.203 65.6291C217.657 65.4081 213.585 65.4669 209.99 65.4495C211.548 60.8104 211.333 51.0132 211.242 45.8982C211.139 40.1824 211.937 28.6186 209.834 23.6723L213.255 23.4663ZM220.111 41.177C223.302 41.1991 231.483 41.7646 233.54 39.9458C235.668 37.2752 235.243 34.1561 232.593 32.0472C228.654 31.232 224.088 31.466 220.02 31.5262L220.111 41.177Z" fill="#7B0C29"/>
<path d="M328.224 23.5955C331.896 23.4142 336.277 23.4761 339.965 23.5556C339.853 23.8087 339.749 24.0654 339.652 24.3253C337.899 29.137 338.707 54.8888 338.921 61.0783C338.969 62.4849 339.489 64.1793 340.101 65.4947L328.297 65.4441C329.964 61.8432 329.574 52.7444 329.574 48.328C324.691 47.9843 318.07 48.194 313.038 48.2416C313.058 54.2061 312.393 59.9025 314.292 65.569C310.485 65.4923 306.679 65.4496 302.875 65.4403C305.536 58.8711 303.694 45.2571 304.239 37.8174C304.514 34.0194 304.025 27.2109 302.921 23.5831C306.598 23.4549 310.574 23.5186 314.272 23.5151C313.836 24.9986 313.572 26.06 313.27 27.5772C313.089 29.7442 313.014 31.3707 313.012 33.5442L313.065 41.1771C318.378 41.0535 324.242 41.1749 329.594 41.1782C329.365 36.5269 330.187 27.4962 328.224 23.5955Z" fill="#7B0C29"/>
<path d="M313.012 33.5446C312.32 32.575 310.824 28.69 312.461 27.9114C312.679 27.8076 313.034 27.6746 313.269 27.5776C313.089 29.7446 313.014 31.3711 313.012 33.5446Z" fill="#7B0C29"/>
<path d="M363.939 23.6031C366.814 23.3886 371.327 23.4925 374.264 23.5708C375.517 26.1236 376.909 31.1649 377.83 34.0667L384.619 54.802C385.835 58.4514 386.788 62.1849 388.436 65.6516C386.062 65.3654 379.147 65.365 376.751 65.6317C377.429 63.5582 377.27 57.6884 374.962 57.1736C370.786 57.1577 366.609 57.1639 362.435 57.1921C360.972 60.7456 361.415 62.0617 361.091 65.3691C360.677 65.598 351.313 65.4077 349.756 65.5443C353.082 60.4667 354.928 50.5711 357.049 44.714C359.521 37.8892 361.318 30.3383 363.939 23.6031ZM364.356 50.3538L368.684 50.3252C369.997 50.3219 372.691 50.2474 373.889 50.3842C373.288 48.3165 369.834 34.0751 369.213 33.6307C367.532 39.0004 365.865 44.9176 364.356 50.3538Z" fill="#7B0C29"/>
<path d="M127.245 23.458C133.928 23.6025 140.808 23.5131 147.514 23.5475C147.368 26.5925 147.423 29.8651 147.42 32.9287C142.699 31.378 134.904 31.6831 129.839 31.9574C129.796 35.0833 129.806 38.2096 129.869 41.3348C134.693 40.8096 137.471 41.7721 143.634 40.6413L143.639 48.9464C141.483 48.6183 139.819 48.4443 137.641 48.289L129.769 48.3335C129.86 54.0195 129.494 60.2504 131.156 65.6003C127.389 65.5219 123.622 65.4655 119.854 65.4313C121.551 60.331 120.943 50.0468 120.977 44.3114C121.01 38.8348 121.47 28.4124 119.824 23.5838C122.289 23.4864 124.686 23.5823 127.245 23.458Z" fill="#7B0C29"/>
<path d="M48.3356 21.7593L48.6858 21.8525C48.835 22.2102 48.4473 28.1709 48.442 29.2176L48.4931 76.2896C48.5056 83.012 48.3041 90.1823 48.4054 96.8101C46.5809 95.3905 43.7882 93.8464 41.7787 92.74C40.1658 91.8954 39.0821 91.3087 37.3203 90.8112C38.3917 88.7712 40.5467 85.3356 40.876 83.1149C41.5489 78.5788 41.2582 73.1331 41.2538 68.5384L41.252 41.1061C41.2529 36.7273 41.0531 29.9072 41.4452 25.7055C43.3409 24.4912 46.9375 22.9594 48.3356 21.7593Z" fill="#7B0C29"/>
<path d="M331.133 82.5509C334.794 82.6839 344.528 81.148 345.81 85.7644C346.266 87.4009 345.131 88.8053 344.272 90.1293C344.629 91.8638 347.504 90.8546 345.922 96.1377C345.779 96.3353 345.62 96.5224 345.451 96.6975C343.129 99.1301 334.895 98.3456 331.062 98.424C331.192 93.2394 331.118 87.758 331.133 82.5509ZM342.75 95.2018C345.149 90.3309 336.9 91.6124 334.157 91.6424L334.186 95.739C336.393 95.6997 340.951 95.9476 342.75 95.2018ZM334.195 88.871C336.369 89.0137 340.378 89.403 342.281 88.4737C344.405 83.7178 336.939 84.9905 334.153 85.1057C334.179 86.3245 334.237 87.6619 334.195 88.871Z" fill="#5B5A5C"/>
<path d="M302.877 107.081L305.767 106.956C305.943 111.94 305.938 118.586 305.817 123.583L303.392 123.501C302.874 123.136 302.965 122.808 302.813 122.045C302.196 122.015 300.713 123.412 299.738 123.569C298.561 123.759 297.826 123.621 296.641 123.472C292.795 121.895 292.169 116.332 294.68 113.322C295.502 112.319 296.693 111.693 297.982 111.586C300.117 111.404 301.425 112.366 302.932 113.625L302.877 107.081ZM300.769 120.961C301.705 120.385 302.103 120.154 302.885 119.389L302.883 115.776C301.11 114.347 300.467 113.974 298.176 114.148C296.231 115.44 295.081 117.599 296.522 119.75C297.011 120.474 297.766 120.973 298.625 121.137C299.392 121.285 300.015 121.131 300.769 120.961Z" fill="#5B5A5C"/>
<path d="M343.887 111.755C347.77 111.855 345.72 111.855 346.658 113.287C347.881 113.006 349.495 111.667 350.453 111.567C357.692 110.806 359.115 122.23 351.883 123.655C349.052 123.672 348.652 123.346 346.495 121.58C346.74 123.571 346.709 125.875 346.731 127.905L343.832 127.946C343.825 122.604 343.748 117.082 343.887 111.755ZM346.929 119.249C347.68 120.745 349.37 121.517 350.993 121.106C352.896 120.623 354.051 118.693 353.577 116.787C353.103 114.882 351.178 113.718 349.271 114.183C348.215 114.441 347.334 115.165 346.878 116.151C346.422 117.138 346.442 118.278 346.929 119.249Z" fill="#5B5A5C"/>
<path d="M154.592 81.9351C155.337 81.9019 156.213 81.7523 156.779 82.1808C157.664 83.3559 157.098 86.4514 157.047 88.3002C158.402 87.2216 158.98 86.5448 160.764 86.2648C163.948 85.7645 166.66 88.1486 167.024 91.2743C167.302 93.665 166.84 95.1902 165.414 97.0912C161.305 100.914 158.343 96.811 157.198 96.9883C157.146 97.5695 157.093 97.6321 156.719 98.0852C156.081 98.5338 155.244 98.3873 154.436 98.3529C154.873 93.9869 154.452 86.6327 154.592 81.9351ZM157.196 90.4534C156.953 93.6033 157.224 96.466 161.389 96.1144C165.684 94.2182 164.979 88.5119 159.632 88.8227C158.623 89.4052 158.085 89.7103 157.196 90.4534Z" fill="#5B5A5C"/>
<path d="M302.865 86.2022C311.977 85.3694 313.735 97.0319 305.039 98.5802C295.767 99.5099 294.146 87.8005 302.865 86.2022ZM304.99 95.9929C306.951 95.4164 308.079 93.3651 307.517 91.4005C306.953 89.4358 304.909 88.2944 302.942 88.8452C300.955 89.401 299.801 91.4679 300.369 93.4511C300.937 95.434 303.012 96.5748 304.99 95.9929Z" fill="#5B5A5C"/>
<path d="M275.072 86.2C283.951 85.4598 285.134 97.7891 276.328 98.6212C267.603 99.0753 266.173 87.5469 275.072 86.2ZM276.704 96.0115C278.691 95.5198 279.901 93.5064 279.401 91.5212C278.901 89.5363 276.881 88.3363 274.898 88.8452C272.929 89.351 271.737 91.3547 272.235 93.3275C272.733 95.3003 274.731 96.5001 276.704 96.0115Z" fill="#5B5A5C"/>
<path d="M259.872 86.2016C261.685 86.0075 263.408 86.3091 264.866 87.4584C266.163 88.5007 266.992 90.0184 267.164 91.6737C267.617 95.7368 265.047 98.1983 261.181 98.6221C252.965 99.3482 250.766 87.6175 259.872 86.2016ZM261.78 95.9478C263.725 95.3444 264.815 93.2813 264.216 91.3349C263.619 89.3885 261.56 88.2925 259.612 88.8842C257.656 89.4786 256.553 91.549 257.154 93.5038C257.753 95.4585 259.828 96.5539 261.78 95.9478Z" fill="#5B5A5C"/>
<path d="M388.349 111.567C390.054 111.675 391.349 111.899 392.761 112.912C394.003 113.794 394.84 115.141 395.078 116.647C395.347 118.235 394.961 119.864 394.012 121.165C392.547 123.139 390.831 123.48 388.613 123.8C380.851 124.1 378.679 112.566 388.349 111.567ZM389.796 121.014C391.424 120.402 392.38 118.711 392.06 117.001C391.871 115.98 391.248 115.091 390.351 114.565C389.457 114.039 388.377 113.927 387.393 114.259C386.164 114.672 385.256 115.716 385.014 116.989C384.774 118.262 385.236 119.566 386.228 120.4C387.219 121.235 388.584 121.469 389.796 121.014Z" fill="#5B5A5C"/>
<path d="M128.252 82.4466C130.027 82.3222 135.136 82.3427 135.722 84.4602C135.601 84.7669 135.482 85.0921 135.309 85.3725C135.249 85.4699 135.004 85.8913 134.914 85.9343C134.37 86.1929 129.98 84.514 127.879 85.0473C126.592 85.3738 125.666 86.2392 125.01 87.3671C124.132 88.8756 123.987 90.4245 124.446 92.1026C124.806 93.4196 125.303 94.3127 126.514 95.0025C128.818 96.3148 131.37 95.9174 133.802 95.2521L133.862 92.014C132.271 91.8497 130.547 92.2293 129.405 91.6065C128.867 90.7283 129.054 90.6149 129.037 89.4233C131.456 89.3043 134.372 89.323 136.827 89.2816L136.808 96.7993C131.416 100.16 122.345 99.357 121.199 91.9081C120.413 86.7897 123.22 83.2442 128.252 82.4466Z" fill="#5B5A5C"/>
<path d="M214.965 82.4406C218.304 82.2298 220.375 82.5441 223.243 84.2522L222.047 86.3329C220.877 85.7901 212.685 82.877 212.837 87.1322C212.924 89.5725 221.551 88.5001 222.763 90.4114C226.428 96.1991 222.159 98.1243 216.9 98.674C213.811 98.3426 211.684 98.1851 209.023 96.4088C209.278 95.6421 209.675 94.6838 209.968 93.9099C212.772 95.2302 217.626 97.2224 220.463 94.9482C220.86 94.3342 220.879 94.1846 220.935 93.4521C219.305 89.7455 209.364 94.9764 209.732 85.4169C211.481 83.4339 212.365 82.953 214.965 82.4406Z" fill="#5B5A5C"/>
<path d="M211.391 107.57C215.102 107.195 216.841 107.536 219.957 109.409C219.575 110.215 219.25 111.039 218.645 111.687C216.206 110.535 210.058 108.205 209.54 112.567C210.813 116.502 221.092 110.726 220.711 120.432C218.813 123.234 217.315 123.455 214.16 123.739C212.509 124.015 206.614 123.051 205.971 121.183C206.029 120.515 206.082 120.426 206.543 119.927C208.677 118.814 215.287 123.524 217.571 119.569C217.786 119.198 217.814 119.067 217.797 118.651C216.579 115.907 207.299 117.946 206.516 113.517C205.845 109.724 208.177 108.414 211.391 107.57Z" fill="#5B5A5C"/>
<path d="M156.756 111.748C159.652 111.459 159.91 111.356 161.82 113.448C162.552 113.653 163.885 111.5 166.393 111.527C171.862 111.584 170.482 119.373 170.466 123.566L167.643 123.591C167.567 120.189 168.854 109.891 162.353 115.66C162.26 117.081 162.321 119.301 162.315 120.782L162.322 123.579L159.482 123.572C159.467 120.492 160.582 109.679 154.593 115.841C154.356 118.11 154.464 121.241 154.481 123.584L151.638 123.534C151.686 121.96 151.331 112.736 151.914 112.077C152.848 111.874 153.115 111.906 154.06 111.985C154.689 112.464 154.5 112.25 154.766 113.093C155.34 113.05 156.267 112.157 156.756 111.748Z" fill="#5B5A5C"/>
<path d="M248.222 111.732C248.471 111.719 249.387 111.683 249.513 111.781C251.291 113.178 251.841 117.474 252.837 119.642C253.771 117.574 255.009 111.682 257.377 111.521C259.146 112.488 260.628 117.729 261.37 119.814C262.212 117.132 263.108 114.467 264.06 111.823L266.787 111.747C266.479 112.85 265.763 114.702 265.36 115.83C264.346 118.141 263.78 124.825 260.428 123.461C258.89 122.223 257.784 117.604 257.123 115.473C256.145 117.487 255.007 121.294 254.126 123.597C253.159 123.597 252.075 123.53 251.099 123.49C250.709 122.033 247.266 112.659 247.497 111.939L248.222 111.732Z" fill="#5B5A5C"/>
<path d="M144.118 86.2029C144.468 86.1641 144.82 86.1439 145.172 86.1421C152.864 86.145 151.418 92.7929 151.343 98.4476C150.531 98.417 149.25 98.4474 148.562 98.1163C148.561 97.692 148.553 97.2677 148.54 96.8438C147.093 96.538 143.177 101.138 139.802 97.1128C136.414 88.2478 147.318 92.2895 148.613 91.3717C148.648 90.9016 148.302 90.4753 148.04 90.1214C146.323 87.8016 142.936 89.3914 140.619 89.257C140.083 89.2259 140.038 89.0651 139.78 88.6976C139.748 86.5891 142.607 86.4347 144.118 86.2029ZM146.102 95.9426C147.248 95.2711 147.796 94.9494 148.803 94.0918C147.069 93.5921 145.645 93.1786 143.797 93.2579C142.99 93.5097 142.598 93.5763 142.047 94.2374C141.596 96.4039 144.687 96.3116 146.102 95.9426Z" fill="#5B5A5C"/>
<path d="M273.949 111.568C273.999 111.567 274.052 111.566 274.103 111.567C281.682 111.605 280.209 117.929 280.11 123.623C279.363 123.598 278.614 123.534 277.867 123.478C277.116 122.992 277.645 123.176 277.35 122.005C274.479 122.185 272.23 126.456 268.08 121.616C267.356 112.885 275.543 117.65 277.367 116.446C277.347 116.264 277.295 115.993 277.206 115.853C275.264 112.522 272.252 115.057 269.556 114.617C268.871 114.506 268.552 113.523 268.915 112.787C270.744 111.843 271.957 111.732 273.949 111.568ZM275.918 120.576C276.57 120.081 276.828 120.052 277.09 119.365C276.202 118.213 272.957 118.426 271.618 118.59C271.144 119.157 270.97 119.333 270.858 120.089C271.51 121.79 274.01 121.332 275.372 120.803C275.554 120.731 275.737 120.656 275.918 120.576Z" fill="#5B5A5C"/>
<path d="M403.671 86.2007C409.073 85.6885 410.744 88.4875 411.529 93.1925C408.247 93.3183 404.416 93.2348 401.092 93.2425C403.169 96.7258 405.458 96.7551 408.958 95.1552C409.564 94.8955 409.914 95.2288 410.308 95.6027C411.304 99.4868 403.568 98.9619 401.266 97.6581C399.903 96.902 398.909 95.6194 398.519 94.1101C397.405 89.9699 399.817 87.2152 403.671 86.2007ZM401.004 91.1113C402.603 91.1668 404.202 91.1831 405.801 91.1598C406.57 91.186 407.476 91.3305 408.055 90.882C408.224 89.559 405.751 88.767 404.689 88.5954C402.808 89.0074 402.319 89.7285 401.004 91.1113Z" fill="#5B5A5C"/>
<path d="M140.26 111.739C149.811 110.712 148.506 116.329 148.444 123.571C147.805 123.557 146.229 123.572 145.719 123.3C145.621 123.247 145.691 122.36 145.545 121.846C142.852 122.139 142.403 125.624 137.148 122.634C134.243 117.852 138.233 115.676 142.629 116.392C143.425 116.521 144.808 116.889 145.544 116.852C145.622 116.484 145.559 116.387 145.414 116.065C144.046 113.019 140.423 113.997 138.021 115.238C137.61 114.579 137.225 113.676 136.892 112.952C138.238 112.342 138.862 112.14 140.26 111.739ZM143.723 120.82C144.408 120.373 145.378 119.778 145.982 119.271C143.57 118.495 142.676 118.373 140.137 118.535C139.612 119.113 139.412 119.289 139.345 120.089C140.017 121.866 142.337 121.347 143.723 120.82Z" fill="#5B5A5C"/>
<path d="M174.726 86.2C179.858 85.6552 181.639 88.8007 182.246 93.2138C180.949 93.2286 172.56 93.0391 171.95 93.4293C171.932 94.1041 172.779 95.1468 173.378 95.4195C175.619 96.4395 177.086 96.1954 179.34 95.4092C180.049 95.1063 179.792 95.1146 180.499 95.218C181.121 95.8119 180.946 95.5297 181.178 96.3869C180.76 98.6175 177.386 98.6569 175.643 98.647C171.895 98.6263 168.828 96.0291 169.083 92.1172C169.258 89.4433 170.345 88.2786 172.195 86.5858L174.726 86.2ZM177.377 91.1573C178.236 91.1232 178.4 91.2723 178.932 90.7856C178.511 88.9763 175.656 88.7121 174.124 88.8219C173.389 89.2726 172.658 89.6277 172.214 90.36L172.277 90.7973C173.432 91.434 175.992 91.197 177.377 91.1573Z" fill="#5B5A5C"/>
<path d="M237.958 111.747C241.234 111.446 244.036 111.596 245.8 114.837C246.271 115.701 246.509 116.618 246.263 117.595C244.644 119.761 238.846 117.393 236.337 118.496L236.317 118.92C237.828 121.569 240.311 121.537 243.003 120.83C244.056 120.28 244.216 120.116 245.302 120.691C245.679 121.333 245.622 121.058 245.556 121.802C244.258 124.213 238.408 124.217 236.452 123.014C231.321 119.859 232.418 113.591 237.958 111.747ZM241.476 116.26L243.992 116.393C241.987 114.397 241.76 113.999 238.782 114.142C237.914 114.529 236.936 114.898 236.489 115.755C237.049 116.608 240.395 116.288 241.476 116.26Z" fill="#5B5A5C"/>
<path d="M372.216 107.539C374.337 107.345 378.485 107.247 379.698 109.336C379.943 110.077 379.507 110.844 379.203 111.604C375.907 110.153 371.676 108.981 369.394 112.817C368.649 114.082 368.438 115.592 368.808 117.013C369.158 118.378 370.046 119.543 371.271 120.242C373.266 121.378 375.403 121.018 377.5 120.451C378.48 119.912 378.639 119.7 379.608 119.821C380.209 120.27 380.474 121.392 380.729 122.148C377.401 123.912 372.927 124.44 369.506 122.641C367.74 121.726 366.416 120.135 365.841 118.229C364.18 112.85 367.158 109.039 372.216 107.539Z" fill="#5B5A5C"/>
<path d="M122.064 107.733C126.564 107.652 131.243 107.713 135.756 107.709C135.869 108.602 135.805 109.504 135.769 110.404L124.904 110.359L124.893 114.604C127.481 114.498 130.689 114.57 133.322 114.563C133.682 114.529 133.794 114.599 134.122 114.738C134.529 115.608 134.603 115.918 134.06 116.681C132.529 117.076 126.595 116.933 124.894 116.824L124.904 123.566L122.025 123.577L122.064 107.733Z" fill="#5B5A5C"/>
<path d="M239.684 81.9165L242.699 81.9264C242.704 84.0109 242.768 86.3307 242.501 88.378C245.12 86.399 249.153 84.3517 250.995 88.4695C251.949 90.6042 251.605 95.8759 251.634 98.4431C250.709 98.394 249.64 98.4422 248.7 98.4634C248.832 97.1028 248.799 95.4172 248.81 94.0277C248.794 89.0517 247.651 86.7489 242.71 90.4106C242.598 92.7425 242.717 95.9058 242.737 98.2986C241.787 98.3636 240.649 98.3358 239.682 98.3365C239.928 93.7367 239.71 86.713 239.684 81.9165Z" fill="#5B5A5C"/>
<path d="M322.97 106.922L325.598 106.993C325.779 109.363 325.666 111.613 325.558 113.977C327.488 111.734 330.781 110.4 333.33 112.743C335.292 114.549 334.667 120.735 334.64 123.568L331.647 123.543L331.684 119.012C331.688 115.901 331.193 111.835 326.508 115.129C325.197 116.051 325.706 121.755 325.715 123.584L322.844 123.572C322.891 118.145 322.73 112.303 322.97 106.922Z" fill="#5B5A5C"/>
<path d="M368.639 86.2021C370.191 86.1114 373.833 86.3539 374.584 87.9207C374.267 88.8451 374.445 88.7361 373.762 89.3142C372.007 89.6446 367.727 86.9719 367.141 89.9202C368.116 91.7476 376.945 90.4897 375.447 95.7008C374.793 97.9688 371.868 98.4625 369.786 98.6529C368.229 98.533 364.222 98.2413 363.486 96.7455C363.566 96.0279 363.524 96.2571 364.019 95.608C366.154 94.4336 370.238 97.9371 372.306 95.3027C372.081 93.0728 365.918 94.0428 364.378 91.8166C362.929 89.7213 364.262 88.169 365.876 86.7245C366.729 86.4892 367.755 86.3467 368.639 86.2021Z" fill="#5B5A5C"/>
<path d="M431.501 86.2098C432.976 86.0956 436.983 86.3856 437.662 87.8933C437.49 88.5547 437.477 88.7946 436.935 89.1803C435.34 89.7051 430.45 87.1375 429.978 89.91C430.926 91.2616 436.921 91.3199 437.73 92.5272C440.798 97.1107 435.721 98.345 432.774 98.6874C431.322 98.5525 427.494 98.1296 426.668 96.8811C426.615 96.2363 426.63 96.1618 426.987 95.6232C428.584 94.523 435.353 98.1734 435.408 94.8208C434.122 93.2591 421.654 93.4569 428.824 86.7876C429.613 86.5752 430.681 86.3827 431.501 86.2098Z" fill="#5B5A5C"/>
<path d="M418.123 86.1919C418.493 86.1776 418.864 86.1763 419.234 86.1884C420.551 86.2329 422.961 86.5891 423.884 87.5699C423.985 87.9482 424.064 87.9887 423.947 88.3529C423.009 91.2788 420.588 87.2106 416.817 89.1154C416.421 89.7087 416.478 89.4527 416.555 90.1283C417.87 91.9115 426.84 90.3268 424.74 95.8157C423.701 98.5327 421.342 98.4785 418.91 98.6438C416.403 98.3772 414.989 98.2419 412.777 96.9501L413.861 94.8321L413.916 94.8567C415.714 95.6747 420.802 97.5385 421.932 94.927C420.877 93.1818 413.852 94.259 413.425 90.6778C413.026 87.3402 415.399 86.6043 418.123 86.1919Z" fill="#5B5A5C"/>
<path d="M311.847 111.76C313.783 111.602 319.109 111.197 319.422 113.711C318.235 116.693 312.931 111.516 311.545 115.35C312.25 116.617 320.565 115.844 320.605 119.276C320.636 121.851 318.565 123.409 316.14 123.569C314.052 123.895 309.906 123.871 308.642 121.866C308.549 120.851 308.715 120.903 309.186 119.844C310.957 120.738 312.327 121.443 314.371 121.407C315.239 121.392 317.424 121.051 317.409 119.95C316.395 118.844 312.86 118.843 311.342 118.251C307.1 116.597 308.358 113.281 311.847 111.76Z" fill="#5B5A5C"/>
<path d="M194.803 111.795L197.754 111.763C197 114.133 194.148 119.996 193.003 122.6C192.203 124.526 191.484 126.506 189.555 127.566C188.218 128.3 185.916 128.871 185.028 127.234C184.912 126.508 185.027 126.345 185.363 125.672C188.132 125.478 188.469 125.479 189.847 122.966C188.666 121.079 185.69 114.378 184.711 112.068C185.047 111.774 186.27 111.83 186.79 111.816C188.178 112.098 190.548 118.132 191.292 119.794C192.466 117.534 193.59 114.303 194.803 111.795Z" fill="#5B5A5C"/>
<path d="M390.756 86.1885C390.983 86.1687 391.212 86.1594 391.439 86.1608C397.324 86.2191 395.873 94.2772 395.837 98.396L392.848 98.3839C392.862 97.4613 392.901 96.5085 392.884 95.5854C392.813 91.76 393.945 87.591 388.293 89.1869C388.179 89.2924 388.068 89.401 387.96 89.5131C386.436 91.0753 387.009 95.9817 387.035 98.4055L384.035 98.4361L384.042 86.5009C384.762 86.4866 385.896 86.4476 386.606 86.5483C387.278 86.6437 386.747 87.2028 387.143 87.9397C388.67 86.9052 388.961 86.4844 390.756 86.1885Z" fill="#5B5A5C"/>
<path d="M358.009 86.5572C358.993 86.5266 360.055 86.4384 361.046 86.375L361.018 93.1035L361.046 98.4849C360.2 98.4517 359.672 98.4459 358.839 98.2624C358.181 97.8209 358.075 97.7079 357.773 96.9745L357.747 96.9097C357.319 96.9214 356.454 97.8678 356.048 98.2426C347.616 100.18 348.83 92.5821 349.257 86.753C349.698 86.4321 350.81 86.4719 351.414 86.4446C351.44 86.4453 351.469 86.44 351.495 86.4466C352.579 86.7196 351.277 93.6358 352.951 95.6556C353.253 96.0219 353.674 96.2753 354.154 96.2975C355.594 96.3634 356.978 95.1967 357.989 94.3238C358.037 91.7352 358.044 89.146 358.009 86.5572Z" fill="#5B5A5C"/>
<path d="M406.545 111.817L409.371 111.713C409.536 115.08 409.384 120.163 409.368 123.614C408.939 123.619 408.509 123.618 408.08 123.611C406.042 123.56 406.963 122.731 406.232 121.963C402.718 124.258 398.289 125.05 397.617 119.68C397.608 118.431 397.368 112.503 397.932 111.911C404.505 110.593 395.934 124.122 405.152 120.621C407.078 119.889 406.241 114.153 406.545 111.817Z" fill="#5B5A5C"/>
<path d="M414.588 111.746C415.814 111.871 415.178 112.763 415.779 113.377C416.566 112.946 418.099 111.841 418.797 111.679C425.954 110.018 424.44 119.421 424.363 123.6L421.57 123.528C421.621 121.229 421.577 118.795 421.572 116.486C421.568 115.997 421.273 115.1 420.923 114.777C419.138 113.132 416.83 114.88 415.548 116.01C415.486 118.471 415.546 121.104 415.559 123.579L412.689 123.557C412.693 120.9 412.53 114.527 412.83 112.171C413.42 111.742 413.788 111.832 414.588 111.746Z" fill="#5B5A5C"/>
<path d="M318.884 81.3711C319.813 81.5773 321.097 81.7839 321.859 82.2959C322.362 83.1558 322.04 84.5408 320.881 84.4507C319.619 84.3525 319.075 83.8451 317.921 84.5289C317.573 85.2218 317.569 85.3809 317.582 86.1588C318.436 87.2343 321.3 85.5362 322.078 87.3621C321.961 88.2342 322.102 87.9439 321.56 88.577C320.694 88.9487 318.692 88.7993 317.586 88.807C317.505 91.231 317.56 93.9379 317.56 96.3833C317.604 97.0418 317.723 97.6525 317.364 98.1999C316.809 98.6168 315.507 98.4449 314.749 98.4121L314.784 88.772C313.379 88.7744 312.218 89.0857 311.328 87.8212C311.544 86.2101 313.504 86.4833 314.74 86.4971C314.753 84.6847 314.815 84.2815 315.408 82.5345C316.247 82.0593 317.903 81.6509 318.884 81.3711Z" fill="#5B5A5C"/>
<path d="M224.497 107.746L224.807 107.715C226.109 107.589 226.4 107.413 227.329 108.179C227.746 109.036 227.565 110.861 227.536 111.894C229.462 111.83 230.572 111.56 232.217 112.56L232.228 113.398C230.695 114.419 229.376 114.164 227.532 114.121C227.51 115.742 227.235 119.49 228.21 120.753C229.019 121.796 230.019 120.767 231.38 120.87C232.056 121.332 231.902 121.336 232.202 122.205C232.18 122.387 232.153 122.879 232.061 122.98C230.92 124.232 226.208 123.804 225.325 122.531C224.151 120.84 224.514 116.204 224.547 114.132C223.256 114.157 221.549 114.46 221.477 112.72C222.298 111.546 223.096 111.814 224.452 111.833L224.497 107.746Z" fill="#5B5A5C"/>
<path d="M231.936 86.1972C233.236 86.125 236.635 86.3072 236.992 87.8539C236.349 90.6925 234.199 88.7155 232.047 88.8882C228.899 89.1405 228.024 93.5107 230.45 95.3189C232.604 96.9245 234.655 95.3729 236.84 95.1451C237.282 96.142 237.52 96.4504 237.232 97.4409C236.547 98.1803 235.562 98.2715 234.564 98.4854C228.443 99.7997 223.738 94.2505 227.137 88.6931C228.134 87.0652 230.049 86.4929 231.936 86.1972Z" fill="#5B5A5C"/>
<path d="M431.768 111.743C433.731 111.507 438.079 111.242 437.953 114.201C436.599 115.641 433.892 113.541 431.693 114.511C429.043 115.68 429.534 119.873 432.021 120.84C434.019 121.617 435.374 121.003 437.198 120.216C438.253 120.603 438.489 121.458 438.083 122.449C436.22 124.167 432.301 123.913 430.136 122.897C426.666 121.269 426.083 118.017 427.706 114.75C428.605 112.939 429.924 112.348 431.768 111.743Z" fill="#5B5A5C"/>
<path d="M284.227 111.698C286.59 111.862 285.561 111.843 286.174 113.477C287.553 112.8 290.328 110.476 291.899 111.95C292.368 114.905 289.788 114.341 287.954 114.955C287.401 115.14 286.42 115.967 285.942 116.353V123.564L283.211 123.571C283.174 120.602 282.885 115.048 283.431 112.045C283.456 111.913 284.022 111.769 284.227 111.698Z" fill="#5B5A5C"/>
<path d="M179.712 107.094C179.898 107.076 180.083 107.06 180.269 107.045C180.993 106.988 181.892 106.863 182.45 107.339C182.694 108.618 182.691 122.061 182.488 123.551L179.638 123.539C179.61 118.832 179.414 111.688 179.712 107.094Z" fill="#5B5A5C"/>
<path d="M284.947 81.9152L287.91 81.8989C287.829 86.3171 288.203 94.4757 287.813 98.4667L284.895 98.4035C285.082 93.2171 284.943 87.1664 284.947 81.9152Z" fill="#5B5A5C"/>
<path d="M190.678 81.8926L193.541 81.9139C193.28 86.3474 193.403 93.8833 193.534 98.391C192.901 98.4546 191.39 98.4218 190.691 98.4275C190.858 93.2898 190.752 87.0574 190.678 81.8926Z" fill="#5B5A5C"/>
<path d="M448.752 106.906C448.891 106.945 449.09 106.964 449.18 107.077C449.847 107.915 449.629 121.273 449.51 123.147C449.083 123.718 448.858 123.594 448.001 123.755C447.686 123.681 447.433 123.559 447.138 123.433C446.774 122.893 446.869 108.596 447.041 107.292C447.7 106.856 447.898 106.971 448.752 106.906Z" fill="#5B5A5C"/>
<path d="M184.739 81.9321L187.274 81.8574C187.465 86.2184 187.517 94.0643 187.319 98.3908L184.637 98.3789C184.989 94.3013 184.738 86.397 184.739 81.9321Z" fill="#5B5A5C"/>
<path d="M338.362 111.816C339.117 111.764 339.873 111.629 340.538 111.955C340.908 112.678 340.776 122.079 340.633 123.31L340.309 123.564C339.551 123.567 338.84 123.542 338.084 123.512L337.886 123.269C337.668 121.882 337.608 113.273 337.943 112.053L338.362 111.816Z" fill="#5B5A5C"/>
<path d="M173.553 111.823L176.288 111.767C176.441 114.832 176.56 120.598 176.33 123.584L173.426 123.56C173.407 120.665 173.237 114.549 173.553 111.823Z" fill="#5B5A5C"/>
<path d="M196.941 86.4277L199.687 86.4553C199.857 88.9447 199.795 95.9735 199.656 98.4623L196.809 98.4425C196.972 94.4871 196.748 90.4155 196.941 86.4277Z" fill="#5B5A5C"/>
<path d="M440.906 111.81C441.811 111.756 442.675 111.598 443.391 112.088C443.565 113.449 443.631 122.365 443.379 123.579C443.155 123.582 442.932 123.583 442.708 123.582C442.109 123.58 441.212 123.629 440.831 123.243C440.635 121.831 440.531 112.972 440.906 111.81Z" fill="#5B5A5C"/>
<path d="M378.157 86.4414L380.66 86.4678C380.677 88.1041 380.884 97.1918 380.563 98.3753L377.84 98.3751C377.994 96.274 377.565 87.6181 378.157 86.4414Z" fill="#5B5A5C"/>
<path d="M197.597 81.4463C198.484 81.1094 199.479 81.5285 199.857 82.3982C200.236 83.268 199.865 84.2818 199.014 84.7013C198.427 84.9912 197.727 84.9344 197.195 84.5532C196.662 84.1721 196.382 83.5288 196.466 82.8791C196.55 82.2295 196.985 81.6787 197.597 81.4463Z" fill="#5B5A5C"/>
<path d="M378.552 81.5058C379.417 81.1092 380.44 81.4741 380.858 82.3282C381.277 83.1821 380.937 84.214 380.094 84.6537C379.53 84.9485 378.849 84.9137 378.318 84.5627C377.787 84.212 377.488 83.6002 377.536 82.9651C377.585 82.3299 377.975 81.7712 378.552 81.5058Z" fill="#5B5A5C"/>
<path d="M441.522 106.698C442.392 106.379 443.359 106.799 443.718 107.652C444.08 108.505 443.705 109.491 442.868 109.891C442.293 110.166 441.61 110.102 441.097 109.725C440.582 109.347 440.315 108.716 440.403 108.084C440.494 107.451 440.923 106.918 441.522 106.698Z" fill="#5B5A5C"/>
<path d="M338.752 106.662C339.653 106.389 340.607 106.893 340.891 107.792C341.175 108.69 340.682 109.65 339.788 109.945C339.2 110.139 338.552 110.002 338.092 109.585C337.633 109.168 337.433 108.536 337.57 107.931C337.706 107.326 338.158 106.841 338.752 106.662Z" fill="#5B5A5C"/>
<path d="M174.573 106.649C175.494 106.48 176.379 107.083 176.561 108.001C176.743 108.92 176.154 109.814 175.238 110.01C174.634 110.138 174.007 109.932 173.598 109.469C173.188 109.006 173.06 108.358 173.262 107.774C173.464 107.19 173.965 106.76 174.573 106.649Z" fill="#5B5A5C"/>
<path d="M0 0.43189C19.1411 0.684436 38.7496 0.481101 57.9402 0.479539L81.4177 0.480802C85.9671 0.480736 90.9997 0.575614 95.5107 0.388184C95.5224 3.80409 95.7162 10.0298 95.3933 13.2264C93.1487 15.1134 90.4386 16.9566 87.4433 15.2643C83.7925 13.2019 80.3551 10.7394 76.7909 8.53054C74.8079 7.2537 71.0893 5.24116 69.4211 3.8446C66.2104 6.19948 61.6818 8.40502 58.2122 10.3957C53.4827 13.1092 48.8856 15.8139 44.2746 18.7386C40.7834 20.9531 37.1974 22.5107 34.4796 25.8188C32.4932 28.2367 31.1574 32.1319 30.6781 35.2086C30.2702 37.8276 30.2869 41.2976 30.2301 43.997C26.6378 43.7216 23.0815 44.8734 20.3325 47.2027C17.3502 49.7476 15.9631 54.1 14.8594 57.7837C14.6502 58.482 14.5004 59.4406 14.6606 60.1634L14.9611 60.4943C16.3012 60.3778 17.7087 57.7031 19.0242 57.1873C22.2325 55.9294 27.0473 55.7047 30.4173 55.7309C30.3726 66.1773 30.6642 77.9605 30.3294 88.2549C24.2562 87.6508 20.017 86.1893 13.5946 87.9059C11.4802 88.4712 9.35198 89.2824 7.3325 89.7889C2.58124 83.7406 2.39139 83.4937 0 76.1163V0.43189Z" fill="#7B0C29"/>
</g>
<defs>
<clipPath id="clip0_184_999">
<rect width="451.123" height="130.2" fill="white"/>
</clipPath>
</defs>
</svg>
