<svg width="108" height="100" viewBox="0 0 108 100" fill="none" xmlns="http://www.w3.org/2000/svg">
<g clip-path="url(#clip0_124_4772)">
<path d="M15.1203 69.5654H6.48031C5.29231 69.5654 4.32031 70.5437 4.32031 71.7393V97.8263C4.32031 99.0219 5.29231 100 6.48031 100H15.1203C16.3083 100 17.2803 99.0219 17.2803 97.8263V71.7393C17.2803 70.5437 16.3083 69.5654 15.1203 69.5654ZM12.9603 95.6524H8.64031V73.9133H12.9603V95.6524Z" fill="#7F072A"/>
<path d="M32.3996 65.2178H23.7596C22.5716 65.2178 21.5996 66.196 21.5996 67.3917V97.8265C21.5996 99.0221 22.5716 100 23.7596 100H32.3996C33.5876 100 34.5596 99.0221 34.5596 97.8265V67.3917C34.5596 66.196 33.5876 65.2178 32.3996 65.2178ZM30.2396 95.6526H25.9196V69.5656H30.2396V95.6526Z" fill="#7F072A"/>
<path d="M49.6799 78.2612H41.0399C39.8519 78.2612 38.8799 79.2395 38.8799 80.4351V97.8264C38.8799 99.0221 39.8519 100 41.0399 100H49.6799C50.8679 100 51.8399 99.0221 51.8399 97.8264V80.4351C51.8399 79.2395 50.8679 78.2612 49.6799 78.2612ZM47.5199 95.6525H43.1999V82.6091H47.5199V95.6525Z" fill="#7F072A"/>
<path d="M66.9602 69.5654H58.3202C57.1322 69.5654 56.1602 70.5437 56.1602 71.7393V97.8263C56.1602 99.0219 57.1322 100 58.3202 100H66.9602C68.1482 100 69.1202 99.0219 69.1202 97.8263V71.7393C69.1202 70.5437 68.1482 69.5654 66.9602 69.5654ZM64.8002 95.6524H60.4802V73.9133H64.8002V95.6524Z" fill="#7F072A"/>
<path d="M84.2404 73.9131H75.6004C74.4124 73.9131 73.4404 74.8913 73.4404 76.087V97.8261C73.4404 99.0218 74.4124 100 75.6004 100H84.2404C85.4284 100 86.4004 99.0218 86.4004 97.8261V76.087C86.4004 74.8913 85.4284 73.9131 84.2404 73.9131ZM82.0804 95.6522H77.7604V78.2609H82.0804V95.6522Z" fill="#7F072A"/>
<path d="M101.52 65.2178H92.8797C91.6917 65.2178 90.7197 66.196 90.7197 67.3917V97.8265C90.7197 99.0221 91.6917 100 92.8797 100H101.52C102.708 100 103.68 99.0221 103.68 97.8265V67.3917C103.68 66.196 102.708 65.2178 101.52 65.2178ZM99.3597 95.6526H95.0397V69.5656H99.3597V95.6526Z" fill="#7F072A"/>
<path d="M105.84 52.1747H103.291C102.406 49.653 100.03 47.8269 97.2 47.8269C93.636 47.8269 90.72 50.7617 90.72 54.3487C90.72 54.6095 90.7632 54.8704 90.8064 55.1313L84.4128 58.3704C83.2464 57.24 81.6696 56.5226 79.92 56.5226C77.6736 56.5226 75.6864 57.6965 74.52 59.4574L69.0552 58.066C68.7312 54.7617 65.988 52.1747 62.64 52.1747C59.076 52.1747 56.16 55.1095 56.16 58.6965C56.16 58.9573 56.2032 59.2182 56.2464 59.4791L49.8528 62.7182C48.6864 61.5878 47.1096 60.8704 45.36 60.8704C44.0424 60.8704 42.8112 61.2834 41.7744 61.9573L34.236 56.2617C34.4304 55.653 34.56 55.0008 34.56 54.3269C34.56 50.74 31.644 47.8052 28.08 47.8052C24.732 47.8052 21.9888 50.3921 21.6648 53.6965L16.2 55.0878C15.0336 53.3269 13.0464 52.153 10.8 52.153C7.992 52.153 5.616 53.9791 4.7088 56.5008H2.16C0.972 56.5008 0 57.4791 0 58.6747C0 59.8704 0.972 60.8487 2.16 60.8487H4.7088C5.5944 63.3704 7.9704 65.1965 10.8 65.1965C14.148 65.1965 16.8912 62.6095 17.2152 59.3052L22.68 57.9139C23.8464 59.6747 25.8336 60.8487 28.08 60.8487C29.3976 60.8487 30.6288 60.4356 31.6656 59.7617L39.204 65.4574C39.0096 66.066 38.88 66.7182 38.88 67.3921C38.88 70.9791 41.796 73.9139 45.36 73.9139C48.924 73.9139 51.84 70.9791 51.84 67.3921C51.84 67.1313 51.7968 66.8704 51.7536 66.6095L58.1472 63.3704C59.3136 64.5008 60.8904 65.2182 62.64 65.2182C64.8864 65.2182 66.8736 64.0443 68.04 62.2834L73.5048 63.6747C73.8288 66.9791 76.572 69.566 79.92 69.566C83.484 69.566 86.4 66.6313 86.4 63.0443C86.4 62.7834 86.3568 62.5226 86.3136 62.2617L92.7072 59.0226C93.8736 60.153 95.4504 60.8704 97.2 60.8704C100.008 60.8704 102.384 59.0443 103.291 56.5226H105.84C107.028 56.5226 108 55.5443 108 54.3487C108 53.153 107.028 52.1747 105.84 52.1747ZM10.8 60.8704C9.612 60.8704 8.64 59.8921 8.64 58.6965C8.64 57.5008 9.612 56.5226 10.8 56.5226C11.988 56.5226 12.96 57.5008 12.96 58.6965C12.96 59.8921 11.988 60.8704 10.8 60.8704ZM28.08 56.5226C26.892 56.5226 25.92 55.5443 25.92 54.3487C25.92 53.153 26.892 52.1747 28.08 52.1747C29.268 52.1747 30.24 53.153 30.24 54.3487C30.24 55.5443 29.268 56.5226 28.08 56.5226ZM45.36 69.566C44.172 69.566 43.2 68.5878 43.2 67.3921C43.2 66.1965 44.172 65.2182 45.36 65.2182C46.548 65.2182 47.52 66.1965 47.52 67.3921C47.52 68.5878 46.548 69.566 45.36 69.566ZM62.64 60.8704C61.452 60.8704 60.48 59.8921 60.48 58.6965C60.48 57.5008 61.452 56.5226 62.64 56.5226C63.828 56.5226 64.8 57.5008 64.8 58.6965C64.8 59.8921 63.828 60.8704 62.64 60.8704ZM79.92 65.2182C78.732 65.2182 77.76 64.24 77.76 63.0443C77.76 61.8487 78.732 60.8704 79.92 60.8704C81.108 60.8704 82.08 61.8487 82.08 63.0443C82.08 64.24 81.108 65.2182 79.92 65.2182ZM97.2 56.5226C96.012 56.5226 95.04 55.5443 95.04 54.3487C95.04 53.153 96.012 52.1747 97.2 52.1747C98.388 52.1747 99.36 53.153 99.36 54.3487C99.36 55.5443 98.388 56.5226 97.2 56.5226Z" fill="#7F072A"/>
<path d="M23.7603 43.4783H84.2403C87.8043 43.4783 90.7203 40.5435 90.7203 36.9565V30.4348C90.7203 29.2391 89.7483 28.2609 88.5603 28.2609C87.3723 28.2609 86.4003 29.2391 86.4003 30.4348V36.9565C86.4003 38.1522 85.4283 39.1304 84.2403 39.1304H64.3251C65.6427 37.8913 66.8091 36.4348 67.8027 34.7826H79.9419C81.1299 34.7826 82.1019 33.8043 82.1019 32.6087V10.8696C82.1019 9.67391 81.1299 8.69565 79.9419 8.69565H67.8027C66.8091 7.04348 65.6427 5.58696 64.3251 4.34783H84.2403C85.4283 4.34783 86.4003 5.32609 86.4003 6.52174V13.0435C86.4003 14.2391 87.3723 15.2174 88.5603 15.2174C89.7483 15.2174 90.7203 14.2391 90.7203 13.0435V6.52174C90.7203 2.93478 87.8043 0 84.2403 0H23.7603C20.1963 0 17.2803 2.93478 17.2803 6.52174V36.9565C17.2803 40.5435 20.1963 43.4783 23.7603 43.4783ZM77.7603 13.0435V30.4348H69.8331C70.7619 27.7609 71.2803 24.8261 71.2803 21.7391C71.2803 18.6522 70.7619 15.7174 69.8331 13.0435H77.7603ZM66.9603 21.7391C66.9603 31.3261 61.1499 39.1304 54.0003 39.1304C46.8507 39.1304 41.0403 31.3261 41.0403 21.7391C41.0403 12.1522 46.8507 4.34783 54.0003 4.34783C61.1499 4.34783 66.9603 12.1522 66.9603 21.7391ZM38.1675 30.4348H30.2403V13.0435H38.1675C37.2387 15.7174 36.7203 18.6522 36.7203 21.7391C36.7203 24.8261 37.2387 27.7609 38.1675 30.4348ZM21.6003 6.52174C21.6003 5.32609 22.5723 4.34783 23.7603 4.34783H43.6755C42.3579 5.58696 41.1915 7.04348 40.1979 8.69565H28.0587C26.8707 8.69565 25.8987 9.67391 25.8987 10.8696V32.6087C25.8987 33.8043 26.8707 34.7826 28.0587 34.7826H40.1979C41.1915 36.4348 42.3579 37.8913 43.6755 39.1304H23.7603C22.5723 39.1304 21.6003 38.1522 21.6003 36.9565V6.52174Z" fill="#7F072A"/>
<path d="M55.3387 26.0878H49.6795C48.4915 26.0878 47.5195 27.0661 47.5195 28.2618C47.5195 29.4574 48.4915 30.4357 49.6795 30.4357H51.8395V32.6096C51.8395 33.8052 52.8115 34.7835 53.9995 34.7835C55.1875 34.7835 56.1595 33.8052 56.1595 32.6096V30.3487C58.6003 29.9574 60.4795 27.827 60.4795 25.2618C60.4795 22.9574 59.0107 20.9792 56.8291 20.3052L52.4227 18.9792C52.0771 18.8705 51.8395 18.5444 51.8395 18.1965C51.8395 17.74 52.2067 17.3705 52.6603 17.3705H58.3195C59.5075 17.3705 60.4795 16.3922 60.4795 15.1965C60.4795 14.0009 59.5075 13.0226 58.3195 13.0226H56.1595V10.8487C56.1595 9.65306 55.1875 8.6748 53.9995 8.6748C52.8115 8.6748 51.8395 9.65306 51.8395 10.8487V13.1096C49.3987 13.5009 47.5195 15.6313 47.5195 18.1965C47.5195 20.5009 48.9883 22.4792 51.1699 23.1531L55.5763 24.4792C55.9219 24.5878 56.1595 24.9139 56.1595 25.2618C56.1595 25.7183 55.7923 26.0878 55.3387 26.0878Z" fill="#7F072A"/>
<path d="M88.5604 23.9133C89.7533 23.9133 90.7204 22.94 90.7204 21.7393C90.7204 20.5387 89.7533 19.5654 88.5604 19.5654C87.3675 19.5654 86.4004 20.5387 86.4004 21.7393C86.4004 22.94 87.3675 23.9133 88.5604 23.9133Z" fill="#7F072A"/>
</g>
<defs>
<clipPath id="clip0_124_4772">
<rect width="108" height="100" fill="white"/>
</clipPath>
</defs>
</svg>
