<svg width="86" height="75" viewBox="0 0 86 75" fill="none" xmlns="http://www.w3.org/2000/svg">
<g clip-path="url(#clip0_124_4838)">
<path d="M31.977 68.885C33.2369 69.4393 34.7488 68.8346 35.278 67.5494C35.8324 66.2643 35.2276 64.8028 33.9425 64.2484C25.5514 60.645 20.1589 52.4555 20.1589 43.384C20.1589 30.8855 30.3391 20.7052 42.8376 20.7052C55.3361 20.7052 65.5163 30.8855 65.5163 43.384C65.5163 52.4807 60.0986 60.6702 51.7327 64.2484C50.4476 64.8028 49.868 66.2895 50.3972 67.5494C50.8003 68.507 51.7327 69.0865 52.7154 69.0865C53.043 69.0865 53.3958 69.011 53.6982 68.885C63.9288 64.5004 70.556 54.4966 70.556 43.384C70.556 28.0884 58.1331 15.6655 42.8376 15.6655C27.542 15.6655 15.1191 28.0884 15.1191 43.384C15.1191 54.4966 21.7212 64.5004 31.977 68.885Z" fill="#7F072A"/>
<path d="M42.8382 10.6258C44.2241 10.6258 45.3581 9.49189 45.3581 8.10596V3.06625C45.3581 1.68032 44.2241 0.546387 42.8382 0.546387C41.4523 0.546387 40.3184 1.68032 40.3184 3.06625V8.10596C40.3184 9.49189 41.4523 10.6258 42.8382 10.6258Z" fill="#7F072A"/>
<path d="M27.0126 11.7596C27.5417 13.0448 29.0285 13.6495 30.3136 13.1204C31.5987 12.5912 32.2035 11.1045 31.6743 9.81935L29.734 5.15761C29.2048 3.87248 27.7181 3.26772 26.433 3.79689C25.1479 4.32606 24.5431 5.81277 25.0723 7.0979L27.0126 11.7596Z" fill="#7F072A"/>
<path d="M16.1016 20.2259C17.0843 21.2086 18.6718 21.2086 19.6546 20.2259C20.6373 19.2431 20.6373 17.6556 19.6546 16.6729L16.1016 13.1199C15.1188 12.1371 13.5313 12.1371 12.5486 13.1199C11.5658 14.1026 11.5658 15.6901 12.5486 16.6729L16.1016 20.2259Z" fill="#7F072A"/>
<path d="M4.6371 30.2804L9.29884 32.2207C10.584 32.7499 12.0707 32.1451 12.5999 30.86C13.129 29.5748 12.5243 28.0881 11.2391 27.559L6.57739 25.6187C5.29227 25.0895 3.80555 25.6943 3.27638 26.9794C2.74721 28.2645 3.35197 29.7512 4.6371 30.2804Z" fill="#7F072A"/>
<path d="M10.0794 43.3841C10.0794 41.9982 8.9455 40.8643 7.55958 40.8643H2.51986C1.13394 40.8643 0 41.9982 0 43.3841C0 44.77 1.13394 45.904 2.51986 45.904H7.55958C8.9455 45.904 10.0794 44.77 10.0794 43.3841Z" fill="#7F072A"/>
<path d="M6.552 61.1489L11.2137 59.2086C12.4989 58.6795 13.1036 57.1927 12.5745 55.9076C12.0453 54.6225 10.5586 54.0177 9.27345 54.5469L4.61171 56.4872C3.32658 57.0163 2.72182 58.5031 3.25099 59.7882C3.78016 61.0733 5.26687 61.6781 6.552 61.1489Z" fill="#7F072A"/>
<path d="M16.1016 66.5413L12.5486 70.0943C11.5658 71.077 11.5658 72.6645 12.5486 73.6473C13.5313 74.63 15.1188 74.63 16.1016 73.6473L19.6546 70.0943C20.6373 69.1115 20.6373 67.524 19.6546 66.5413C18.6718 65.5585 17.0843 65.5585 16.1016 66.5413Z" fill="#7F072A"/>
<path d="M55.3617 13.1204C56.6468 13.6495 58.1336 13.0448 58.6627 11.7596L60.603 7.0979C61.1322 5.81277 60.5274 4.32606 59.2423 3.79689C57.9572 3.26772 56.4705 3.87248 55.9413 5.15761L54.001 9.81935C53.4718 11.1045 54.0766 12.5912 55.3617 13.1204Z" fill="#7F072A"/>
<path d="M69.5733 20.2259L73.1263 16.6729C74.109 15.6901 74.109 14.1026 73.1263 13.1199C72.1435 12.1371 70.556 12.1371 69.5733 13.1199L66.0203 16.6729C65.0375 17.6556 65.0375 19.2431 66.0203 20.2259C67.003 21.2086 68.5905 21.2086 69.5733 20.2259Z" fill="#7F072A"/>
<path d="M73.1006 30.86C73.6298 32.1451 75.1165 32.7499 76.4016 32.2207L81.0633 30.2804C82.3485 29.7512 82.9532 28.2645 82.4241 26.9794C81.8949 25.6943 80.4082 25.0895 79.1231 25.6187L74.4613 27.559C73.1762 28.0881 72.5714 29.5748 73.1006 30.86Z" fill="#7F072A"/>
<path d="M83.1553 40.8643H78.1156C76.7296 40.8643 75.5957 41.9982 75.5957 43.3841C75.5957 44.77 76.7296 45.904 78.1156 45.904H83.1553C84.5412 45.904 85.6751 44.77 85.6751 43.3841C85.6751 41.9982 84.5412 40.8643 83.1553 40.8643Z" fill="#7F072A"/>
<path d="M81.038 56.4872L76.3762 54.5469C75.0911 54.0177 73.6044 54.6225 73.0752 55.9076C72.546 57.1927 73.1508 58.6795 74.4359 59.2086L79.0977 61.1489C80.3828 61.6781 81.8695 61.0733 82.3987 59.7882C82.9279 58.5031 82.3231 57.0163 81.038 56.4872Z" fill="#7F072A"/>
<path d="M65.9949 66.5413C65.0121 67.524 65.0121 69.1115 65.9949 70.0943L69.5479 73.6473C70.5306 74.63 72.1181 74.63 73.1009 73.6473C74.0836 72.6645 74.0836 71.077 73.1009 70.0943L69.5479 66.5413C68.5651 65.5585 66.9776 65.5585 65.9949 66.5413Z" fill="#7F072A"/>
<path d="M51.4808 57.7985C52.01 57.7985 52.514 57.6473 52.9675 57.3198C53.7487 56.7654 54.1267 55.8078 53.9755 54.8503L52.5392 46.5348L58.5868 40.6383C59.2672 39.9579 59.5192 38.9752 59.2168 38.068C58.9144 37.1609 58.1332 36.4805 57.1757 36.3545L48.835 35.145L45.1056 27.5854C44.2488 25.8719 41.4266 25.8719 40.595 27.5854L36.8656 35.145L28.5249 36.3545C27.5673 36.4805 26.7862 37.1609 26.4838 38.068C26.1814 38.9752 26.4334 39.9831 27.1138 40.6383L33.1614 46.5348L31.7251 54.8503C31.5739 55.8078 31.9519 56.7402 32.7331 57.3198C33.5142 57.8741 34.5474 57.9497 35.3789 57.5214L42.8377 53.5904L50.2965 57.5214C50.6745 57.7229 51.0776 57.8237 51.4808 57.8237V57.7985ZM44.022 48.5003C43.644 48.2987 43.2409 48.1979 42.8377 48.1979C42.4345 48.1979 42.0313 48.2987 41.6534 48.5003L37.546 50.6673L38.3271 46.0812C38.4783 45.2748 38.2012 44.4181 37.5964 43.8637L34.2702 40.6131L38.8815 39.9327C39.7131 39.8067 40.4186 39.3028 40.7714 38.5468L42.8377 34.3638L44.904 38.5468C45.282 39.2776 45.9875 39.8067 46.7939 39.9327L51.4052 40.6131L48.079 43.8637C47.4742 44.4433 47.2222 45.2748 47.3482 46.0812L48.1294 50.6673L44.022 48.5003Z" fill="#7F072A"/>
<path d="M42.8382 71.1027C44.2299 71.1027 45.3581 69.9745 45.3581 68.5828C45.3581 67.1912 44.2299 66.063 42.8382 66.063C41.4465 66.063 40.3184 67.1912 40.3184 68.5828C40.3184 69.9745 41.4465 71.1027 42.8382 71.1027Z" fill="#7F072A"/>
</g>
<defs>
<clipPath id="clip0_124_4838">
<rect width="85.6752" height="74.9658" fill="white"/>
</clipPath>
</defs>
</svg>
