<svg width="32" height="32" viewBox="0 0 32 32" fill="none" xmlns="http://www.w3.org/2000/svg">
<path d="M15.0898 0C15.3983 0.0526363 16.6177 0.00944499 16.9863 0.00191363C16.9665 0.200766 16.9787 0.398329 16.9799 0.589817C17.0239 7.51888 22.5343 13.8177 29.3537 14.8716C30.363 15.0276 30.9341 15.174 31.9929 15.1418C31.961 15.7922 31.936 16.3386 32 16.9851C24.7034 16.7439 17.997 22.6007 17.1052 29.8201C17.0283 30.4425 16.94 31.3384 16.9813 31.9617C16.7628 31.9983 15.4296 31.9879 15.0983 32C15.0735 31.3476 15.0207 30.7729 14.9564 30.1346C14.3413 24.0295 9.61043 18.8101 3.68494 17.3718C2.36917 17.0524 1.36335 16.9827 0.0223573 16.9518C-0.0203859 16.4715 0.0102687 15.6697 0.0159594 15.1691C4.2141 15.0207 7.75847 13.6599 10.7512 10.6483C13.6293 7.7521 15.0851 4.08216 15.0898 0Z" fill="#7F072A"/>
</svg>
